<svg width="509" height="136" viewBox="0 0 509 136" fill="none" xmlns="http://www.w3.org/2000/svg">
<path d="M149.46 63.5499V63.4099C149.46 49.4699 159.95 37.9199 174.38 37.9199C183.32 37.9199 188.74 41.0199 193.6 45.7299L189.8 49.8099C185.58 45.8699 181.07 43.0499 174.31 43.0499C163.4 43.0499 155.23 51.9199 155.23 63.2599V63.3999C155.23 74.7999 163.4 83.7499 174.31 83.7499C181.07 83.7499 185.5 81.1499 190.22 76.6399L193.88 80.2299C188.81 85.4399 183.04 88.8899 174.17 88.8899C159.95 88.8899 149.46 77.6899 149.46 63.5399V63.5499Z" fill="#065691"/>
<path d="M200.01 70.0299V69.8899C200.01 59.5399 207.97 50.8799 219.02 50.8799C230.07 50.8799 237.96 59.4699 237.96 69.7499V69.8899C237.96 80.2399 229.86 88.8999 218.88 88.8999C207.9 88.8999 200.01 80.3099 200.01 70.0299ZM232.4 70.0299V69.8899C232.4 62.0799 226.56 55.6699 218.88 55.6699C211.2 55.6699 205.57 62.0799 205.57 69.7499V69.8899C205.57 77.6999 211.34 84.0399 219.02 84.0399C226.7 84.0399 232.4 77.6299 232.4 70.0299Z" fill="#065691"/>
<path d="M247.75 51.6498H253.17V61.1498C255.85 55.0998 261.13 50.7998 268.02 51.0098V56.8498H267.6C259.64 56.8498 253.17 62.5498 253.17 73.5398V88.0398H247.75V51.6398V51.6498Z" fill="#065691"/>
<path d="M278.16 78.4099V56.4399H273.09V51.6499H278.16V40.6699H283.58V51.6499H295.13V56.4399H283.58V77.6999C283.58 82.2099 286.04 83.7499 289.7 83.7499C291.6 83.7499 293.08 83.3999 294.98 82.4799V87.1299C293.08 88.1799 291.04 88.6799 288.43 88.6799C282.52 88.6799 278.15 85.7899 278.15 78.3999L278.16 78.4099Z" fill="#065691"/>
<path d="M301.4 69.9599V69.8199C301.4 59.3299 308.72 50.8799 318.86 50.8799C329.63 50.8799 335.83 59.4699 335.83 70.0999C335.83 70.8799 335.83 71.2299 335.76 71.8599H306.89C307.66 79.7499 313.23 84.1799 319.7 84.1799C324.77 84.1799 328.15 82.1399 331.18 79.0399L334.56 82.0699C330.9 86.2199 326.53 88.8999 319.56 88.8999C309.63 88.8999 301.4 81.2299 301.4 69.9599ZM330.33 67.8499C329.77 61.2999 326.04 55.4599 318.71 55.4599C312.3 55.4599 307.66 60.8099 306.88 67.8499H330.32H330.33Z" fill="#065691"/>
<path d="M357.65 46.8H341.95V38.77H382.01V46.8H366.31V88.06H357.65V46.8Z" fill="#CE913A"/>
<path d="M380.11 69.6799V69.5399C380.11 58.9099 388.56 50.1099 399.96 50.1099C411.36 50.1099 419.74 58.7699 419.74 69.3999V69.5399C419.74 80.0299 411.29 88.8999 399.82 88.8999C388.35 88.8999 380.11 80.2399 380.11 69.6799ZM411.23 69.6799V69.5399C411.23 62.9899 406.51 57.5699 399.82 57.5699C393.13 57.5699 388.63 62.9199 388.63 69.3999V69.5399C388.63 76.0199 393.42 81.4399 399.96 81.4399C406.93 81.4399 411.22 76.0899 411.22 69.6799H411.23Z" fill="#CE913A"/>
<path d="M430.17 77.7699V58.1999H425.45V50.8799H430.17V40.6699H438.69V50.8799H448.69V58.1999H438.69V76.4399C438.69 79.7499 440.38 81.0899 443.27 81.0899C445.1 81.0899 446.86 80.6699 448.55 79.8199V86.7899C446.37 87.9899 444.18 88.6899 440.88 88.6899C434.61 88.6899 430.18 85.9399 430.18 77.7799L430.17 77.7699Z" fill="#CE913A"/>
<path d="M454.81 77.3501V77.2101C454.81 69.1101 461.15 65.2401 470.23 65.2401C474.45 65.2401 477.34 65.8701 480.23 66.7901V65.8701C480.23 60.5201 476.99 57.7701 471.01 57.7701C466.79 57.7701 463.76 58.6901 460.38 60.0901L458.06 53.4001C462.21 51.6401 466.23 50.3701 472.14 50.3701C477.7 50.3701 481.79 51.7801 484.46 54.5201C487.21 57.2701 488.47 61.1401 488.47 66.0001V88.0401H480.16V83.3901C477.63 86.4201 473.75 88.8101 468.05 88.8101C461.08 88.8101 454.81 84.8701 454.81 77.3301V77.3501ZM480.37 74.6801V72.1501C478.19 71.3001 475.3 70.6701 471.92 70.6701C466.36 70.6701 463.19 72.9201 463.19 76.8701V77.0101C463.19 80.6001 466.29 82.6401 470.44 82.6401C476.07 82.6401 480.37 79.4701 480.37 74.6801Z" fill="#CE913A"/>
<path d="M499.09 36.6602H507.68V88.0502H499.09V36.6602Z" fill="#CE913A"/>
<path d="M124.87 72.4799C124.84 71.8599 124.83 70.6899 124.85 69.4399C124.86 68.6499 124.23 67.9999 123.44 67.9999H116.03C116.03 68.4399 116.03 68.8799 116.03 69.3299C115.17 96.0599 92.81 117.03 66.08 116.17C39.35 115.31 18.38 92.9499 19.24 66.2199C20.08 39.9999 41.62 19.3399 67.66 19.3699C67.69 16.9199 67.73 13.6899 67.75 12.0399C67.75 11.4399 67.3 10.9499 66.71 10.8799C65.59 10.7499 64.89 10.5099 64.25 10.2599C60.22 8.6899 61.8 -0.200095 56.52 -9.54585e-05C54.91 0.0599045 48.41 1.6599 46.8 2.2699C41.8 4.1799 47.08 11.3199 44.67 14.8599C43.97 15.8799 38.18 19.2899 36.94 19.6099C35.56 19.9699 34.4 19.7999 33.21 19.0899C30.58 17.5099 27.47 12.4199 24.08 14.7399C22.99 15.4799 17.45 20.7999 16.72 21.8499C13.93 25.8299 21.23 29.3199 21.38 33.1199C21.4 33.7099 21.16 34.4999 20.94 35.0499C20.53 36.0899 17.71 40.7899 16.98 41.5699C13.11 45.6899 5.39 38.2299 3.19 44.4999C2.58 46.2299 0.63 52.3299 0.52 53.8299C0.2 58.1699 8.8 57.9999 10.45 61.3299C10.79 62.0099 10.94 62.7699 11 63.5199C11.09 64.7299 10.91 69.6199 10.69 70.7099C9.73 75.3899 0.03 74.0899 0 78.7499C0 80.1199 1.82 87.0299 2.37 88.6099C4.39 94.4499 12.37 87.6099 15.98 91.7899C16.53 92.4299 19.47 97.8599 19.73 98.6999C21.42 104.06 11.57 107.06 14.97 111.69C16 113.09 20.77 118.15 22.08 119.05C22.95 119.66 24.2 119.75 25.21 119.44C26.67 118.99 29.8 115.58 31.51 114.76C32.51 114.28 33.35 114.19 34.44 114.42C35.25 114.59 40.64 117.81 41.39 118.45C41.88 118.86 42.45 119.55 42.7 120.13C44.16 123.46 39.83 130.08 43.48 132.08C44.57 132.68 51.69 134.74 53.07 134.96C54.78 135.24 55.84 135.07 56.84 133.61C58.72 130.85 58.92 125.25 63 124.79C64.68 124.6 69.89 124.62 71.36 125.16C75.67 126.74 74.01 135.7 79.22 135.53C80.82 135.48 87.56 133.82 89.14 133.21C90.35 132.73 91.31 131.47 91.33 130.16C91.35 127.98 90.35 125.04 90.35 122.89C90.35 122.12 90.87 121.04 91.33 120.43C91.98 119.57 98.14 116 99.2 115.83C101.29 115.49 101.99 116.1 103.53 117.21C105.87 118.9 108.42 122.68 111.53 120.92C112.66 120.28 117.39 115.64 118.44 114.48C119.78 112.99 120.27 111.88 119.23 110C117.6 107.05 113.32 104.28 114.81 100.5C115.17 99.5999 118.15 94.6699 118.78 93.9899C121.27 91.3099 125.46 93.4799 128.62 93.6199C130.33 93.6999 131.25 93.7299 132.14 92.1299C132.77 90.9899 135.14 83.0099 135.23 81.7299C135.58 76.7699 125.14 77.9899 124.85 72.4899L124.87 72.4799Z" fill="#065691"/>
<path d="M111.97 10.8901H86.1998C84.3198 10.8901 82.7998 12.4101 82.7998 14.2901V19.2801C82.7998 21.1601 84.3198 22.6801 86.1998 22.6801H111.65C112.9 22.6801 113.92 23.7001 113.92 24.9501V51.1201C113.92 53.0001 115.44 54.5201 117.32 54.5201H122.04C123.92 54.5201 125.44 53.0001 125.44 51.1201V22.6801V15.8101C125.44 13.1001 123.24 10.9001 120.53 10.9001H111.99L111.97 10.8901Z" fill="#CE913A"/>
<path d="M133.84 10.8901H161.44V11.0001C161.44 17.3401 156.29 22.4801 149.96 22.4801H133.84C131.56 22.4801 129.72 20.6301 129.72 18.3601V15.0201C129.72 12.7401 131.57 10.9001 133.84 10.9001V10.8901Z" fill="#CE913A"/>
<path d="M502.609 127.273C501.347 127.273 500.259 126.994 499.344 126.438C498.435 125.875 497.734 125.091 497.239 124.085C496.751 123.074 496.506 121.898 496.506 120.557C496.506 119.216 496.751 118.034 497.239 117.011C497.734 115.983 498.421 115.182 499.302 114.608C500.188 114.029 501.222 113.739 502.404 113.739C503.086 113.739 503.759 113.852 504.424 114.08C505.089 114.307 505.694 114.676 506.239 115.188C506.785 115.693 507.219 116.364 507.543 117.199C507.867 118.034 508.029 119.063 508.029 120.284V121.136H497.938V119.398H505.984C505.984 118.659 505.836 118 505.54 117.421C505.251 116.841 504.836 116.384 504.296 116.048C503.762 115.713 503.131 115.546 502.404 115.546C501.603 115.546 500.91 115.744 500.325 116.142C499.745 116.534 499.299 117.046 498.986 117.676C498.674 118.307 498.518 118.983 498.518 119.705V120.864C498.518 121.852 498.688 122.69 499.029 123.378C499.376 124.06 499.856 124.58 500.469 124.938C501.083 125.29 501.796 125.466 502.609 125.466C503.137 125.466 503.614 125.392 504.04 125.244C504.472 125.091 504.844 124.864 505.157 124.563C505.469 124.256 505.711 123.875 505.881 123.421L507.825 123.966C507.62 124.625 507.276 125.205 506.793 125.705C506.31 126.199 505.714 126.585 505.004 126.864C504.293 127.136 503.495 127.273 502.609 127.273Z" fill="#065691"/>
<path d="M492.054 113.909L487.213 127H485.168L480.327 113.909H482.508L486.122 124.341H486.258L489.872 113.909H492.054Z" fill="#065691"/>
<path d="M469.936 127.273C468.754 127.273 467.717 126.992 466.825 126.429C465.939 125.867 465.246 125.08 464.746 124.068C464.251 123.057 464.004 121.875 464.004 120.523C464.004 119.159 464.251 117.969 464.746 116.952C465.246 115.935 465.939 115.145 466.825 114.583C467.717 114.02 468.754 113.739 469.936 113.739C471.118 113.739 472.152 114.02 473.038 114.583C473.93 115.145 474.623 115.935 475.118 116.952C475.618 117.969 475.868 119.159 475.868 120.523C475.868 121.875 475.618 123.057 475.118 124.068C474.623 125.08 473.93 125.867 473.038 126.429C472.152 126.992 471.118 127.273 469.936 127.273ZM469.936 125.466C470.834 125.466 471.572 125.236 472.152 124.776C472.731 124.315 473.16 123.71 473.439 122.96C473.717 122.21 473.856 121.398 473.856 120.523C473.856 119.648 473.717 118.833 473.439 118.077C473.16 117.321 472.731 116.71 472.152 116.244C471.572 115.779 470.834 115.546 469.936 115.546C469.038 115.546 468.3 115.779 467.72 116.244C467.141 116.71 466.712 117.321 466.433 118.077C466.155 118.833 466.016 119.648 466.016 120.523C466.016 121.398 466.155 122.21 466.433 122.96C466.712 123.71 467.141 124.315 467.72 124.776C468.3 125.236 469.038 125.466 469.936 125.466Z" fill="#065691"/>
<path d="M440.878 127V113.909H442.822V115.955H442.992C443.265 115.256 443.705 114.713 444.313 114.327C444.921 113.935 445.651 113.739 446.503 113.739C447.367 113.739 448.086 113.935 448.66 114.327C449.239 114.713 449.691 115.256 450.015 115.955H450.151C450.486 115.279 450.989 114.742 451.66 114.344C452.33 113.94 453.134 113.739 454.072 113.739C455.242 113.739 456.199 114.105 456.944 114.838C457.688 115.565 458.06 116.699 458.06 118.239V127H456.049V118.239C456.049 117.273 455.785 116.583 455.256 116.168C454.728 115.753 454.106 115.546 453.39 115.546C452.469 115.546 451.756 115.824 451.251 116.381C450.745 116.932 450.492 117.631 450.492 118.477V127H448.447V118.034C448.447 117.29 448.205 116.69 447.722 116.236C447.239 115.776 446.617 115.546 445.856 115.546C445.333 115.546 444.844 115.685 444.39 115.963C443.941 116.242 443.577 116.628 443.299 117.122C443.026 117.611 442.89 118.176 442.89 118.818V127H440.878Z" fill="#065691"/>
<path d="M425.102 116.841L423.295 117.352C423.182 117.051 423.014 116.759 422.792 116.475C422.576 116.185 422.281 115.946 421.906 115.759C421.531 115.571 421.051 115.477 420.466 115.477C419.665 115.477 418.997 115.662 418.463 116.031C417.934 116.395 417.67 116.858 417.67 117.421C417.67 117.921 417.852 118.315 418.216 118.605C418.579 118.895 419.147 119.136 419.92 119.33L421.863 119.807C423.034 120.091 423.906 120.526 424.48 121.111C425.054 121.69 425.341 122.438 425.341 123.352C425.341 124.102 425.125 124.773 424.693 125.364C424.267 125.955 423.67 126.421 422.903 126.761C422.136 127.102 421.244 127.273 420.227 127.273C418.892 127.273 417.787 126.983 416.912 126.404C416.037 125.824 415.483 124.977 415.25 123.864L417.159 123.386C417.341 124.091 417.684 124.619 418.19 124.972C418.701 125.324 419.369 125.5 420.193 125.5C421.13 125.5 421.875 125.301 422.426 124.904C422.983 124.5 423.261 124.017 423.261 123.455C423.261 123 423.102 122.619 422.784 122.313C422.466 122 421.977 121.767 421.318 121.614L419.136 121.102C417.937 120.818 417.057 120.378 416.494 119.781C415.937 119.179 415.659 118.426 415.659 117.523C415.659 116.784 415.866 116.131 416.281 115.563C416.701 114.994 417.272 114.548 417.994 114.225C418.721 113.901 419.545 113.739 420.466 113.739C421.761 113.739 422.778 114.023 423.517 114.591C424.261 115.159 424.79 115.909 425.102 116.841Z" fill="#065691"/>
<path d="M403.947 127.273C402.765 127.273 401.728 126.992 400.836 126.429C399.95 125.867 399.257 125.08 398.757 124.068C398.263 123.057 398.015 121.875 398.015 120.523C398.015 119.159 398.263 117.969 398.757 116.952C399.257 115.935 399.95 115.145 400.836 114.583C401.728 114.02 402.765 113.739 403.947 113.739C405.129 113.739 406.163 114.02 407.049 114.583C407.942 115.145 408.635 115.935 409.129 116.952C409.629 117.969 409.879 119.159 409.879 120.523C409.879 121.875 409.629 123.057 409.129 124.068C408.635 125.08 407.942 125.867 407.049 126.429C406.163 126.992 405.129 127.273 403.947 127.273ZM403.947 125.466C404.845 125.466 405.584 125.236 406.163 124.776C406.743 124.315 407.172 123.71 407.45 122.96C407.728 122.21 407.868 121.398 407.868 120.523C407.868 119.648 407.728 118.833 407.45 118.077C407.172 117.321 406.743 116.71 406.163 116.244C405.584 115.779 404.845 115.546 403.947 115.546C403.049 115.546 402.311 115.779 401.731 116.244C401.152 116.71 400.723 117.321 400.444 118.077C400.166 118.833 400.027 119.648 400.027 120.523C400.027 121.398 400.166 122.21 400.444 122.96C400.723 123.71 401.152 124.315 401.731 124.776C402.311 125.236 403.049 125.466 403.947 125.466Z" fill="#065691"/>
<path d="M383.721 119.125V127H381.71V113.909H383.653V115.955H383.824C384.13 115.29 384.596 114.756 385.221 114.352C385.846 113.943 386.653 113.739 387.642 113.739C388.528 113.739 389.304 113.921 389.968 114.284C390.633 114.642 391.15 115.188 391.52 115.921C391.889 116.648 392.074 117.568 392.074 118.682V127H390.062V118.818C390.062 117.79 389.795 116.989 389.261 116.415C388.727 115.835 387.994 115.546 387.062 115.546C386.42 115.546 385.846 115.685 385.341 115.963C384.841 116.242 384.446 116.648 384.156 117.182C383.866 117.716 383.721 118.364 383.721 119.125Z" fill="#065691"/>
<path d="M360.72 127.273C359.459 127.273 358.371 126.994 357.456 126.438C356.547 125.875 355.845 125.091 355.351 124.085C354.862 123.074 354.618 121.898 354.618 120.557C354.618 119.216 354.862 118.034 355.351 117.011C355.845 115.983 356.532 115.182 357.413 114.608C358.299 114.029 359.334 113.739 360.515 113.739C361.197 113.739 361.871 113.852 362.535 114.08C363.2 114.307 363.805 114.676 364.351 115.188C364.896 115.693 365.331 116.364 365.655 117.199C365.978 118.034 366.14 119.063 366.14 120.284V121.136H356.049V119.398H364.095C364.095 118.659 363.947 118 363.652 117.421C363.362 116.841 362.947 116.384 362.407 116.048C361.873 115.713 361.243 115.546 360.515 115.546C359.714 115.546 359.021 115.744 358.436 116.142C357.856 116.534 357.41 117.046 357.098 117.676C356.785 118.307 356.629 118.983 356.629 119.705V120.864C356.629 121.852 356.799 122.69 357.14 123.378C357.487 124.06 357.967 124.58 358.581 124.938C359.194 125.29 359.907 125.466 360.72 125.466C361.248 125.466 361.726 125.392 362.152 125.244C362.584 125.091 362.956 124.864 363.268 124.563C363.581 124.256 363.822 123.875 363.993 123.421L365.936 123.966C365.731 124.625 365.388 125.205 364.905 125.705C364.422 126.199 363.825 126.585 363.115 126.864C362.405 127.136 361.606 127.273 360.72 127.273Z" fill="#065691"/>
<path d="M346.656 121.648V113.909H348.667V127H346.656V124.784H346.52C346.213 125.449 345.736 126.014 345.088 126.48C344.44 126.94 343.622 127.171 342.633 127.171C341.815 127.171 341.088 126.992 340.451 126.634C339.815 126.27 339.315 125.725 338.951 124.997C338.588 124.264 338.406 123.341 338.406 122.227V113.909H340.417V122.091C340.417 123.046 340.684 123.807 341.219 124.375C341.758 124.943 342.446 125.227 343.281 125.227C343.781 125.227 344.29 125.1 344.807 124.844C345.329 124.588 345.767 124.196 346.119 123.668C346.477 123.139 346.656 122.466 346.656 121.648Z" fill="#065691"/>
<path d="M329.833 131.909V124.989H329.662C329.515 125.227 329.304 125.529 329.032 125.892C328.759 126.25 328.37 126.571 327.864 126.855C327.358 127.134 326.685 127.273 325.844 127.273C324.753 127.273 323.79 126.997 322.955 126.446C322.12 125.889 321.466 125.105 320.995 124.094C320.523 123.077 320.287 121.875 320.287 120.489C320.287 119.114 320.523 117.921 320.995 116.909C321.466 115.898 322.123 115.117 322.963 114.565C323.804 114.014 324.776 113.739 325.878 113.739C326.731 113.739 327.404 113.881 327.898 114.165C328.398 114.443 328.779 114.761 329.04 115.119C329.307 115.472 329.515 115.761 329.662 115.989H329.901V113.909H331.844V131.909H329.833ZM326.117 125.466C326.924 125.466 327.606 125.256 328.162 124.835C328.719 124.409 329.142 123.821 329.432 123.071C329.722 122.315 329.867 121.443 329.867 120.455C329.867 119.477 329.725 118.622 329.441 117.889C329.157 117.151 328.736 116.577 328.179 116.168C327.623 115.753 326.935 115.546 326.117 115.546C325.265 115.546 324.554 115.764 323.986 116.202C323.424 116.634 323 117.222 322.716 117.966C322.438 118.705 322.299 119.534 322.299 120.455C322.299 121.386 322.441 122.233 322.725 122.994C323.015 123.75 323.441 124.352 324.003 124.801C324.571 125.244 325.276 125.466 326.117 125.466Z" fill="#065691"/>
<path d="M299.389 127.273C298.207 127.273 297.17 126.992 296.278 126.429C295.392 125.867 294.699 125.08 294.199 124.068C293.704 123.057 293.457 121.875 293.457 120.523C293.457 119.159 293.704 117.969 294.199 116.952C294.699 115.935 295.392 115.145 296.278 114.583C297.17 114.02 298.207 113.739 299.389 113.739C300.571 113.739 301.605 114.02 302.491 114.583C303.383 115.145 304.076 115.935 304.571 116.952C305.071 117.969 305.321 119.159 305.321 120.523C305.321 121.875 305.071 123.057 304.571 124.068C304.076 125.08 303.383 125.867 302.491 126.429C301.605 126.992 300.571 127.273 299.389 127.273ZM299.389 125.466C300.287 125.466 301.025 125.236 301.605 124.776C302.184 124.315 302.613 123.71 302.892 122.96C303.17 122.21 303.309 121.398 303.309 120.523C303.309 119.648 303.17 118.833 302.892 118.077C302.613 117.321 302.184 116.71 301.605 116.244C301.025 115.779 300.287 115.546 299.389 115.546C298.491 115.546 297.752 115.779 297.173 116.244C296.593 116.71 296.164 117.321 295.886 118.077C295.608 118.833 295.468 119.648 295.468 120.523C295.468 121.398 295.608 122.21 295.886 122.96C296.164 123.71 296.593 124.315 297.173 124.776C297.752 125.236 298.491 125.466 299.389 125.466Z" fill="#065691"/>
<path d="M273.081 127.273C271.819 127.273 270.731 126.994 269.816 126.437C268.907 125.875 268.206 125.091 267.711 124.085C267.223 123.074 266.978 121.898 266.978 120.557C266.978 119.216 267.223 118.034 267.711 117.011C268.206 115.983 268.893 115.182 269.774 114.608C270.66 114.028 271.694 113.738 272.876 113.738C273.558 113.738 274.231 113.852 274.896 114.079C275.561 114.307 276.166 114.676 276.711 115.187C277.257 115.693 277.691 116.363 278.015 117.199C278.339 118.034 278.501 119.062 278.501 120.284V121.136H268.41V119.398H276.456C276.456 118.659 276.308 118 276.012 117.42C275.723 116.841 275.308 116.383 274.768 116.048C274.234 115.713 273.603 115.545 272.876 115.545C272.075 115.545 271.382 115.744 270.796 116.142C270.217 116.534 269.771 117.045 269.458 117.676C269.146 118.307 268.99 118.983 268.99 119.704V120.863C268.99 121.852 269.16 122.69 269.501 123.378C269.848 124.059 270.328 124.579 270.941 124.937C271.555 125.29 272.268 125.466 273.081 125.466C273.609 125.466 274.086 125.392 274.512 125.244C274.944 125.091 275.316 124.863 275.629 124.562C275.941 124.256 276.183 123.875 276.353 123.42L278.296 123.966C278.092 124.625 277.748 125.204 277.265 125.704C276.782 126.199 276.186 126.585 275.475 126.863C274.765 127.136 273.967 127.273 273.081 127.273ZM271.853 112.136L273.933 108.182H276.285L273.626 112.136H271.853Z" fill="#065691"/>
<path d="M246.602 127.273C245.34 127.273 244.252 126.994 243.338 126.438C242.428 125.875 241.727 125.091 241.232 124.085C240.744 123.074 240.5 121.898 240.5 120.557C240.5 119.216 240.744 118.034 241.232 117.011C241.727 115.983 242.414 115.182 243.295 114.608C244.181 114.029 245.215 113.739 246.397 113.739C247.079 113.739 247.752 113.852 248.417 114.08C249.082 114.307 249.687 114.676 250.232 115.188C250.778 115.693 251.213 116.364 251.536 117.199C251.86 118.034 252.022 119.063 252.022 120.284V121.136H241.931V119.398H249.977C249.977 118.659 249.829 118 249.534 117.421C249.244 116.841 248.829 116.384 248.289 116.048C247.755 115.713 247.125 115.546 246.397 115.546C245.596 115.546 244.903 115.744 244.318 116.142C243.738 116.534 243.292 117.046 242.98 117.676C242.667 118.307 242.511 118.983 242.511 119.705V120.864C242.511 121.852 242.681 122.69 243.022 123.378C243.369 124.06 243.849 124.58 244.463 124.938C245.076 125.29 245.789 125.466 246.602 125.466C247.13 125.466 247.607 125.392 248.034 125.244C248.465 125.091 248.838 124.864 249.15 124.563C249.463 124.256 249.704 123.875 249.875 123.421L251.818 123.966C251.613 124.625 251.269 125.205 250.786 125.705C250.303 126.199 249.707 126.585 248.997 126.864C248.286 127.136 247.488 127.273 246.602 127.273Z" fill="#065691"/>
<path d="M226.065 119.125V127H224.053V109.545H226.065V115.955H226.235C226.542 115.278 227.002 114.741 227.616 114.344C228.235 113.94 229.059 113.739 230.088 113.739C230.98 113.739 231.761 113.918 232.431 114.276C233.102 114.628 233.622 115.17 233.991 115.903C234.366 116.631 234.553 117.557 234.553 118.682V127H232.542V118.818C232.542 117.778 232.272 116.974 231.732 116.406C231.198 115.832 230.457 115.545 229.508 115.545C228.849 115.545 228.258 115.685 227.735 115.963C227.218 116.241 226.809 116.648 226.508 117.182C226.213 117.716 226.065 118.364 226.065 119.125Z" fill="#065691"/>
<path d="M217.489 109.545V127H215.478V109.545H217.489Z" fill="#065691"/>
<path d="M202.927 127.307C202.097 127.307 201.344 127.151 200.668 126.838C199.992 126.52 199.455 126.063 199.058 125.466C198.66 124.864 198.461 124.136 198.461 123.284C198.461 122.534 198.609 121.926 198.904 121.46C199.2 120.989 199.594 120.619 200.089 120.352C200.583 120.085 201.129 119.886 201.725 119.756C202.327 119.619 202.933 119.511 203.54 119.432C204.336 119.33 204.981 119.253 205.475 119.202C205.975 119.145 206.339 119.051 206.566 118.921C206.799 118.79 206.915 118.563 206.915 118.239V118.171C206.915 117.33 206.685 116.676 206.225 116.21C205.771 115.744 205.08 115.511 204.154 115.511C203.194 115.511 202.441 115.722 201.896 116.142C201.35 116.563 200.967 117.011 200.745 117.489L198.836 116.807C199.177 116.011 199.631 115.392 200.2 114.949C200.773 114.5 201.398 114.188 202.075 114.011C202.756 113.83 203.427 113.739 204.086 113.739C204.506 113.739 204.989 113.79 205.535 113.892C206.086 113.989 206.617 114.19 207.129 114.497C207.646 114.804 208.075 115.267 208.415 115.886C208.756 116.506 208.927 117.335 208.927 118.375V127H206.915V125.227H206.813C206.677 125.511 206.45 125.815 206.131 126.139C205.813 126.463 205.39 126.739 204.862 126.966C204.333 127.193 203.688 127.307 202.927 127.307ZM203.234 125.5C204.029 125.5 204.7 125.344 205.245 125.031C205.796 124.719 206.211 124.315 206.489 123.821C206.773 123.327 206.915 122.807 206.915 122.261V120.421C206.83 120.523 206.643 120.617 206.353 120.702C206.069 120.781 205.739 120.852 205.364 120.915C204.995 120.972 204.634 121.023 204.282 121.068C203.935 121.108 203.654 121.142 203.438 121.171C202.915 121.239 202.427 121.35 201.972 121.503C201.523 121.651 201.16 121.875 200.881 122.176C200.609 122.472 200.472 122.875 200.472 123.386C200.472 124.085 200.731 124.614 201.248 124.972C201.771 125.324 202.433 125.5 203.234 125.5Z" fill="#065691"/>
<path d="M193.169 113.909V115.614H186.385V113.909H193.169ZM188.362 110.773H190.374V123.25C190.374 123.818 190.456 124.245 190.621 124.529C190.791 124.807 191.007 124.995 191.269 125.091C191.536 125.182 191.817 125.227 192.112 125.227C192.334 125.227 192.516 125.216 192.658 125.193C192.8 125.165 192.913 125.142 192.999 125.125L193.408 126.932C193.271 126.983 193.081 127.034 192.837 127.085C192.592 127.142 192.283 127.171 191.908 127.171C191.34 127.171 190.783 127.049 190.237 126.804C189.698 126.56 189.249 126.188 188.891 125.688C188.538 125.188 188.362 124.557 188.362 123.796V110.773Z" fill="#065691"/>
<path d="M176.116 127.273C174.854 127.273 173.766 126.994 172.851 126.438C171.942 125.875 171.241 125.091 170.746 124.085C170.258 123.074 170.013 121.898 170.013 120.557C170.013 119.216 170.258 118.034 170.746 117.011C171.241 115.983 171.928 115.182 172.809 114.608C173.695 114.029 174.729 113.739 175.911 113.739C176.593 113.739 177.266 113.852 177.931 114.08C178.596 114.307 179.201 114.676 179.746 115.188C180.292 115.693 180.726 116.364 181.05 117.199C181.374 118.034 181.536 119.063 181.536 120.284V121.136H171.445V119.398H179.491C179.491 118.659 179.343 118 179.048 117.421C178.758 116.841 178.343 116.384 177.803 116.048C177.269 115.713 176.638 115.546 175.911 115.546C175.11 115.546 174.417 115.744 173.832 116.142C173.252 116.534 172.806 117.046 172.494 117.676C172.181 118.307 172.025 118.983 172.025 119.705V120.864C172.025 121.852 172.195 122.69 172.536 123.378C172.883 124.06 173.363 124.58 173.976 124.938C174.59 125.29 175.303 125.466 176.116 125.466C176.644 125.466 177.121 125.392 177.548 125.244C177.979 125.091 178.351 124.864 178.664 124.563C178.976 124.256 179.218 123.875 179.388 123.421L181.332 123.966C181.127 124.625 180.783 125.205 180.3 125.705C179.817 126.199 179.221 126.585 178.511 126.864C177.8 127.136 177.002 127.273 176.116 127.273Z" fill="#065691"/>
<path d="M157.784 127.273C156.693 127.273 155.73 126.997 154.895 126.446C154.06 125.889 153.406 125.105 152.935 124.094C152.463 123.077 152.227 121.875 152.227 120.489C152.227 119.114 152.463 117.92 152.935 116.909C153.406 115.898 154.063 115.116 154.903 114.565C155.744 114.014 156.716 113.739 157.818 113.739C158.67 113.739 159.344 113.881 159.838 114.165C160.338 114.443 160.719 114.761 160.98 115.119C161.247 115.472 161.455 115.761 161.602 115.989H161.773V109.545H163.784V127H161.841V124.989H161.602C161.455 125.227 161.244 125.528 160.972 125.892C160.699 126.25 160.31 126.571 159.804 126.855C159.298 127.133 158.625 127.273 157.784 127.273ZM158.057 125.466C158.864 125.466 159.545 125.256 160.102 124.835C160.659 124.409 161.082 123.821 161.372 123.071C161.662 122.315 161.807 121.443 161.807 120.455C161.807 119.477 161.665 118.622 161.381 117.889C161.097 117.151 160.676 116.577 160.119 116.168C159.563 115.753 158.875 115.545 158.057 115.545C157.205 115.545 156.494 115.764 155.926 116.202C155.364 116.633 154.94 117.222 154.656 117.966C154.378 118.705 154.239 119.534 154.239 120.455C154.239 121.386 154.381 122.233 154.665 122.994C154.955 123.75 155.381 124.352 155.943 124.801C156.511 125.244 157.216 125.466 158.057 125.466Z" fill="#065691"/>
</svg>
