<?xml version="1.0" encoding="UTF-8"?>
<svg xmlns="http://www.w3.org/2000/svg" id="Layer_1" viewBox="0 0 514.67 135.55">
  <defs>
    <style>.cls-1{fill:#065691;}.cls-2{fill:#ce913a;}</style>
  </defs>
  <path class="cls-1" d="M149.46,63.55v-.14c0-13.94,10.49-25.49,24.92-25.49,8.94,0,14.36,3.1,19.22,7.81l-3.8,4.08c-4.22-3.94-8.73-6.76-15.49-6.76-10.91,0-19.08,8.87-19.08,20.21v.14c0,11.4,8.17,20.35,19.08,20.35,6.76,0,11.19-2.6,15.91-7.11l3.66,3.59c-5.07,5.21-10.84,8.66-19.71,8.66-14.22,0-24.71-11.2-24.71-25.35Z"></path>
  <path class="cls-1" d="M200.01,70.03v-.14c0-10.35,7.96-19.01,19.01-19.01s18.94,8.59,18.94,18.87v.14c0,10.35-8.1,19.01-19.08,19.01s-18.87-8.59-18.87-18.87ZM232.4,70.03v-.14c0-7.81-5.84-14.22-13.52-14.22s-13.31,6.41-13.31,14.08v.14c0,7.81,5.77,14.15,13.45,14.15s13.38-6.41,13.38-14.01Z"></path>
  <path class="cls-1" d="M247.75,51.65h5.42v9.5c2.68-6.05,7.96-10.35,14.85-10.14v5.84h-.42c-7.96,0-14.43,5.7-14.43,16.69v14.5h-5.42v-36.4Z"></path>
  <path class="cls-1" d="M278.16,78.41v-21.97h-5.07v-4.79h5.07v-10.98h5.42v10.98h11.55v4.79h-11.55v21.26c0,4.51,2.46,6.05,6.12,6.05,1.9,0,3.38-.35,5.28-1.27v4.65c-1.9,1.05-3.94,1.55-6.55,1.55-5.91,0-10.28-2.89-10.28-10.28Z"></path>
  <path class="cls-1" d="M301.4,69.96v-.14c0-10.49,7.32-18.94,17.46-18.94,10.77,0,16.97,8.59,16.97,19.22,0,.78,0,1.13-.07,1.76h-28.87c.77,7.89,6.34,12.32,12.81,12.32,5.07,0,8.45-2.04,11.48-5.14l3.38,3.03c-3.66,4.15-8.03,6.83-15,6.83-9.93,0-18.16-7.67-18.16-18.94ZM330.33,67.85c-.56-6.55-4.29-12.39-11.62-12.39-6.41,0-11.05,5.35-11.83,12.39h23.44Z"></path>
  <path class="cls-2" d="M357.65,46.8h-15.7v-8.03h40.06v8.03h-15.7v41.26h-8.66v-41.26Z"></path>
  <path class="cls-2" d="M380.11,69.68v-.14c0-10.63,8.45-19.43,19.85-19.43s19.78,8.66,19.78,19.29v.14c0,10.49-8.45,19.36-19.92,19.36s-19.71-8.66-19.71-19.22ZM411.23,69.68v-.14c0-6.55-4.72-11.97-11.41-11.97s-11.19,5.35-11.19,11.83v.14c0,6.48,4.79,11.9,11.33,11.9,6.97,0,11.26-5.35,11.26-11.76Z"></path>
  <path class="cls-2" d="M430.17,77.77v-19.57h-4.72v-7.32h4.72v-10.21h8.52v10.21h10v7.32h-10v18.24c0,3.31,1.69,4.65,4.58,4.65,1.83,0,3.59-.42,5.28-1.27v6.97c-2.18,1.2-4.37,1.9-7.67,1.9-6.27,0-10.7-2.75-10.7-10.91Z"></path>
  <path class="cls-2" d="M454.81,77.35v-.14c0-8.1,6.34-11.97,15.42-11.97,4.22,0,7.11.63,10,1.55v-.92c0-5.35-3.24-8.1-9.22-8.1-4.22,0-7.25.92-10.63,2.32l-2.32-6.69c4.15-1.76,8.17-3.03,14.08-3.03,5.56,0,9.65,1.41,12.32,4.15,2.75,2.75,4.01,6.62,4.01,11.48v22.04h-8.31v-4.65c-2.53,3.03-6.41,5.42-12.11,5.42-6.97,0-13.24-3.94-13.24-11.48ZM480.37,74.68v-2.53c-2.18-.85-5.07-1.48-8.45-1.48-5.56,0-8.73,2.25-8.73,6.2v.14c0,3.59,3.1,5.63,7.25,5.63,5.63,0,9.93-3.17,9.93-7.96Z"></path>
  <path class="cls-2" d="M499.09,36.66h8.59v51.39h-8.59v-51.39Z"></path>
  <path class="cls-1" d="M147.99,119.92h1.36v1.83c.76-1.07,1.8-2.03,3.49-2.03,2.18,0,4.35,1.73,4.35,4.72v.04c0,2.96-2.15,4.74-4.35,4.74-1.69,0-2.78-.9-3.49-1.94v4.56h-1.36v-11.92ZM155.79,124.5v-.04c0-2.17-1.46-3.52-3.2-3.52s-3.29,1.44-3.29,3.5v.04c0,2.11,1.6,3.52,3.29,3.52s3.2-1.3,3.2-3.5Z"></path>
  <path class="cls-1" d="M159.68,119.92h1.36v2.38c.67-1.51,1.99-2.59,3.72-2.54v1.46h-.11c-1.99,0-3.61,1.43-3.61,4.17v3.63h-1.36v-9.1Z"></path>
  <path class="cls-1" d="M165.86,124.52v-.04c0-2.59,1.99-4.75,4.75-4.75s4.74,2.15,4.74,4.72v.04c0,2.59-2.02,4.75-4.77,4.75s-4.72-2.15-4.72-4.72ZM173.96,124.52v-.04c0-1.96-1.46-3.56-3.38-3.56s-3.33,1.6-3.33,3.52v.04c0,1.95,1.44,3.54,3.36,3.54s3.35-1.6,3.35-3.5Z"></path>
  <path class="cls-1" d="M176.21,131.81v-1.11c.21.05.48.05.67.05.62,0,1.04-.37,1.04-1.21v-9.61h1.36v9.63c0,1.62-.83,2.34-2.22,2.34-.33,0-.55-.02-.85-.09ZM177.83,116.43h1.55v1.5h-1.55v-1.5Z"></path>
  <path class="cls-1" d="M181.86,124.5v-.04c0-2.62,1.83-4.74,4.37-4.74,2.69,0,4.24,2.15,4.24,4.81,0,.19,0,.28-.02.44h-7.22c.19,1.97,1.58,3.08,3.21,3.08,1.27,0,2.11-.51,2.87-1.29l.85.76c-.92,1.04-2.01,1.71-3.75,1.71-2.48,0-4.54-1.92-4.54-4.74ZM189.1,123.97c-.14-1.64-1.07-3.1-2.91-3.1-1.6,0-2.76,1.34-2.96,3.1h5.86Z"></path>
  <path class="cls-1" d="M193.32,126.61v-5.49h-1.27v-1.2h1.27v-2.75h1.36v2.75h2.89v1.2h-2.89v5.32c0,1.13.62,1.51,1.53,1.51.48,0,.85-.09,1.32-.32v1.16c-.48.26-.99.39-1.64.39-1.48,0-2.57-.72-2.57-2.57Z"></path>
  <path class="cls-1" d="M199.13,124.52v-.04c0-2.59,1.99-4.75,4.75-4.75s4.74,2.15,4.74,4.72v.04c0,2.59-2.02,4.75-4.77,4.75s-4.72-2.15-4.72-4.72ZM207.23,124.52v-.04c0-1.96-1.46-3.56-3.38-3.56s-3.33,1.6-3.33,3.52v.04c0,1.95,1.44,3.54,3.36,3.54s3.35-1.6,3.35-3.5Z"></path>
  <path class="cls-1" d="M210.31,127.86l.69-.97c.99.76,2.08,1.16,3.15,1.16s1.88-.55,1.88-1.44v-.04c0-.9-1.07-1.27-2.27-1.6-1.41-.42-3.01-.88-3.01-2.57v-.04c0-1.57,1.3-2.61,3.1-2.61,1.13,0,2.34.39,3.28,1l-.62,1.02c-.85-.55-1.8-.88-2.69-.88-1.07,0-1.76.56-1.76,1.32v.04c0,.86,1.13,1.2,2.34,1.57,1.41.42,2.92.97,2.92,2.61v.04c0,1.73-1.43,2.73-3.24,2.73-1.32,0-2.73-.51-3.77-1.34Z"></path>
  <path class="cls-1" d="M224.36,127.86l.69-.97c.99.76,2.08,1.16,3.15,1.16s1.88-.55,1.88-1.44v-.04c0-.9-1.07-1.27-2.27-1.6-1.41-.42-3.01-.88-3.01-2.57v-.04c0-1.57,1.3-2.61,3.1-2.61,1.13,0,2.34.39,3.28,1l-.62,1.02c-.85-.55-1.8-.88-2.69-.88-1.07,0-1.76.56-1.76,1.32v.04c0,.86,1.13,1.2,2.34,1.57,1.41.42,2.92.97,2.92,2.61v.04c0,1.73-1.43,2.73-3.24,2.73-1.32,0-2.73-.51-3.77-1.34Z"></path>
  <path class="cls-1" d="M233.32,124.52v-.04c0-2.59,1.99-4.75,4.75-4.75s4.74,2.15,4.74,4.72v.04c0,2.59-2.02,4.75-4.77,4.75s-4.72-2.15-4.72-4.72ZM241.42,124.52v-.04c0-1.96-1.46-3.56-3.38-3.56s-3.33,1.6-3.33,3.52v.04c0,1.95,1.44,3.54,3.36,3.54s3.35-1.6,3.35-3.5Z"></path>
  <path class="cls-1" d="M246.61,127.28v1.74h-1.36v-12.85h1.36v5.58c.76-1.07,1.8-2.03,3.49-2.03,2.18,0,4.35,1.73,4.35,4.72v.04c0,2.96-2.15,4.74-4.35,4.74-1.69,0-2.78-.9-3.49-1.94ZM253.06,124.5v-.04c0-2.17-1.46-3.52-3.2-3.52s-3.29,1.44-3.29,3.5v.04c0,2.11,1.6,3.52,3.29,3.52s3.2-1.3,3.2-3.5Z"></path>
  <path class="cls-1" d="M262.23,119.92h1.36v1.53c.62-.92,1.41-1.73,2.94-1.73s2.43.78,2.92,1.81c.67-1,1.6-1.81,3.2-1.81,2.11,0,3.38,1.39,3.38,3.66v5.63h-1.36v-5.32c0-1.76-.88-2.75-2.36-2.75-1.36,0-2.52,1.02-2.52,2.82v5.25h-1.34v-5.35c0-1.71-.88-2.71-2.34-2.71s-2.54,1.2-2.54,2.87v5.19h-1.36v-9.1Z"></path>
  <path class="cls-1" d="M278.36,124.5v-.04c0-2.62,1.83-4.74,4.37-4.74,2.69,0,4.24,2.15,4.24,4.81,0,.19,0,.28-.02.44h-7.22c.19,1.97,1.58,3.08,3.21,3.08,1.27,0,2.11-.51,2.87-1.29l.85.76c-.92,1.04-2.01,1.71-3.75,1.71-2.48,0-4.54-1.92-4.54-4.74ZM285.59,123.97c-.14-1.64-1.07-3.1-2.91-3.1-1.6,0-2.76,1.34-2.96,3.1h5.86Z"></path>
  <path class="cls-1" d="M288.81,124.5v-.04c0-2.96,2.17-4.74,4.35-4.74,1.69,0,2.78.9,3.49,1.94v-5.49h1.36v12.85h-1.36v-1.83c-.76,1.09-1.8,2.02-3.49,2.02-2.18,0-4.35-1.73-4.35-4.72ZM296.7,124.48v-.04c0-2.1-1.6-3.5-3.29-3.5s-3.21,1.3-3.21,3.5v.04c0,2.17,1.46,3.52,3.21,3.52s3.29-1.43,3.29-3.52Z"></path>
  <path class="cls-1" d="M301.07,116.43h1.55v1.5h-1.55v-1.5ZM301.16,119.92h1.36v9.1h-1.36v-9.1Z"></path>
  <path class="cls-1" d="M305.13,124.5v-.04c0-2.96,2.17-4.74,4.35-4.74,1.69,0,2.78.9,3.49,1.94v-5.49h1.36v12.85h-1.36v-1.83c-.76,1.09-1.8,2.02-3.49,2.02-2.18,0-4.35-1.73-4.35-4.72ZM313.02,124.48v-.04c0-2.1-1.6-3.5-3.29-3.5s-3.21,1.3-3.21,3.5v.04c0,2.17,1.46,3.52,3.21,3.52s3.29-1.43,3.29-3.52Z"></path>
  <path class="cls-1" d="M316.67,126.38v-.04c0-1.9,1.58-2.94,3.89-2.94,1.18,0,1.97.16,2.8.39v-.32c0-1.64-1-2.48-2.71-2.48-1.07,0-1.92.26-2.76.67l-.4-1.11c1-.48,1.97-.76,3.31-.76s2.27.33,2.94,1c.62.62.93,1.51.93,2.66v5.56h-1.3v-1.37c-.63.83-1.67,1.57-3.29,1.57s-3.4-.95-3.4-2.83ZM323.37,125.68v-.88c-.69-.19-1.55-.39-2.68-.39-1.71,0-2.66.74-2.66,1.88v.04c0,1.14,1.07,1.81,2.29,1.81,1.69,0,3.05-1.02,3.05-2.46Z"></path>
  <path class="cls-1" d="M326.84,130.56c.9-.33,1.25-.78,1.18-1.53h-.63v-1.85h1.62v1.58c0,1.43-.62,2.11-1.95,2.41l-.21-.62Z"></path>
  <path class="cls-1" d="M337.14,119.92h1.36v2.38c.67-1.51,1.99-2.59,3.72-2.54v1.46h-.11c-1.99,0-3.61,1.43-3.61,4.17v3.63h-1.36v-9.1Z"></path>
  <path class="cls-1" d="M343.32,124.5v-.04c0-2.62,1.83-4.74,4.37-4.74,2.69,0,4.24,2.15,4.24,4.81,0,.19,0,.28-.02.44h-7.22c.19,1.97,1.58,3.08,3.21,3.08,1.27,0,2.11-.51,2.87-1.29l.85.76c-.92,1.04-2.01,1.71-3.75,1.71-2.48,0-4.54-1.92-4.54-4.74ZM350.56,123.97c-.14-1.64-1.07-3.1-2.91-3.1-1.6,0-2.76,1.34-2.96,3.1h5.86Z"></path>
  <path class="cls-1" d="M353.55,127.86l.69-.97c.99.76,2.08,1.16,3.15,1.16s1.88-.55,1.88-1.44v-.04c0-.9-1.07-1.27-2.27-1.6-1.41-.42-3.01-.88-3.01-2.57v-.04c0-1.57,1.3-2.61,3.1-2.61,1.13,0,2.34.39,3.28,1l-.62,1.02c-.85-.55-1.8-.88-2.69-.88-1.07,0-1.76.56-1.76,1.32v.04c0,.86,1.13,1.2,2.34,1.57,1.41.42,2.92.97,2.92,2.61v.04c0,1.73-1.43,2.73-3.24,2.73-1.32,0-2.73-.51-3.77-1.34Z"></path>
  <path class="cls-1" d="M362.93,125.57v-5.65h1.36v5.32c0,1.69.9,2.75,2.52,2.75s2.73-1.14,2.73-2.85v-5.21h1.34v9.1h-1.34v-1.58c-.62.99-1.55,1.78-3.12,1.78-2.18,0-3.49-1.48-3.49-3.64Z"></path>
  <path class="cls-1" d="M374.04,116.17h1.36v12.85h-1.36v-12.85Z"></path>
  <path class="cls-1" d="M379.02,126.61v-5.49h-1.27v-1.2h1.27v-2.75h1.36v2.75h2.89v1.2h-2.89v5.32c0,1.13.62,1.51,1.53,1.51.48,0,.85-.09,1.32-.32v1.16c-.48.26-.99.39-1.64.39-1.48,0-2.57-.72-2.57-2.57Z"></path>
  <path class="cls-1" d="M384.98,126.38v-.04c0-1.9,1.58-2.94,3.89-2.94,1.18,0,1.97.16,2.8.39v-.32c0-1.64-1-2.48-2.71-2.48-1.07,0-1.92.26-2.76.67l-.4-1.11c1-.48,1.97-.76,3.31-.76s2.27.33,2.94,1c.62.62.93,1.51.93,2.66v5.56h-1.3v-1.37c-.63.83-1.67,1.57-3.29,1.57s-3.4-.95-3.4-2.83ZM391.68,125.68v-.88c-.69-.19-1.55-.39-2.68-.39-1.71,0-2.66.74-2.66,1.88v.04c0,1.14,1.07,1.81,2.29,1.81,1.69,0,3.05-1.02,3.05-2.46Z"></path>
  <path class="cls-1" d="M395.33,124.5v-.04c0-2.96,2.17-4.74,4.35-4.74,1.69,0,2.78.9,3.49,1.94v-5.49h1.36v12.85h-1.36v-1.83c-.76,1.09-1.8,2.02-3.49,2.02-2.18,0-4.35-1.73-4.35-4.72ZM403.22,124.48v-.04c0-2.1-1.6-3.5-3.29-3.5s-3.21,1.3-3.21,3.5v.04c0,2.17,1.46,3.52,3.21,3.52s3.29-1.43,3.29-3.52Z"></path>
  <path class="cls-1" d="M406.98,124.52v-.04c0-2.59,1.99-4.75,4.75-4.75s4.74,2.15,4.74,4.72v.04c0,2.59-2.02,4.75-4.77,4.75s-4.72-2.15-4.72-4.72ZM415.08,124.52v-.04c0-1.96-1.46-3.56-3.38-3.56s-3.33,1.6-3.33,3.52v.04c0,1.95,1.44,3.54,3.36,3.54s3.35-1.6,3.35-3.5Z"></path>
  <path class="cls-1" d="M418.16,127.86l.69-.97c.99.76,2.08,1.16,3.15,1.16s1.88-.55,1.88-1.44v-.04c0-.9-1.07-1.27-2.27-1.6-1.41-.42-3.01-.88-3.01-2.57v-.04c0-1.57,1.3-2.61,3.1-2.61,1.13,0,2.34.39,3.28,1l-.62,1.02c-.85-.55-1.8-.88-2.69-.88-1.07,0-1.76.56-1.76,1.32v.04c0,.86,1.13,1.2,2.34,1.57,1.41.42,2.92.97,2.92,2.61v.04c0,1.73-1.43,2.73-3.24,2.73-1.32,0-2.73-.51-3.77-1.34Z"></path>
  <path class="cls-1" d="M433,116.43h1.55v1.5h-1.55v-1.5ZM433.09,119.92h1.36v9.1h-1.36v-9.1Z"></path>
  <path class="cls-1" d="M437.6,119.92h1.36v1.58c.62-.99,1.55-1.78,3.12-1.78,2.18,0,3.49,1.48,3.49,3.65v5.65h-1.36v-5.32c0-1.69-.9-2.75-2.52-2.75s-2.73,1.14-2.73,2.85v5.21h-1.36v-9.1Z"></path>
  <path class="cls-1" d="M447.88,124.52v-.04c0-2.59,1.99-4.75,4.67-4.75,1.73,0,2.78.71,3.65,1.62l-.9.95c-.72-.76-1.51-1.37-2.76-1.37-1.85,0-3.26,1.55-3.26,3.52v.04c0,1.97,1.44,3.54,3.35,3.54,1.18,0,2.06-.58,2.78-1.36l.86.81c-.92,1.04-2.01,1.76-3.72,1.76-2.68,0-4.67-2.17-4.67-4.72Z"></path>
  <path class="cls-1" d="M458.5,119.92h1.36v2.38c.67-1.51,1.99-2.59,3.72-2.54v1.46h-.11c-1.99,0-3.61,1.43-3.61,4.17v3.63h-1.36v-9.1Z"></path>
  <path class="cls-1" d="M465.75,119.92h1.36v9.1h-1.36v-9.1ZM467.56,115.99l1.41.65-2.01,1.9h-1.06l1.66-2.55Z"></path>
  <path class="cls-1" d="M469.36,119.92h1.5l3.06,7.55,3.08-7.55h1.46l-3.96,9.17h-1.2l-3.94-9.17Z"></path>
  <path class="cls-1" d="M479.5,124.5v-.04c0-2.62,1.83-4.74,4.37-4.74,2.69,0,4.24,2.15,4.24,4.81,0,.19,0,.28-.02.44h-7.22c.19,1.97,1.58,3.08,3.21,3.08,1.27,0,2.11-.51,2.87-1.29l.85.76c-.92,1.04-2.01,1.71-3.75,1.71-2.48,0-4.54-1.92-4.54-4.74ZM486.74,123.97c-.14-1.64-1.07-3.1-2.91-3.1-1.6,0-2.76,1.34-2.96,3.1h5.86Z"></path>
  <path class="cls-1" d="M490.52,116.43h1.55v1.5h-1.55v-1.5ZM490.61,119.92h1.36v9.1h-1.36v-9.1Z"></path>
  <path class="cls-1" d="M494.36,127.86l.69-.97c.99.76,2.08,1.16,3.15,1.16s1.88-.55,1.88-1.44v-.04c0-.9-1.07-1.27-2.27-1.6-1.41-.42-3.01-.88-3.01-2.57v-.04c0-1.57,1.3-2.61,3.1-2.61,1.13,0,2.34.39,3.28,1l-.62,1.02c-.85-.55-1.8-.88-2.69-.88-1.07,0-1.76.56-1.76,1.32v.04c0,.86,1.13,1.2,2.34,1.57,1.41.42,2.92.97,2.92,2.61v.04c0,1.73-1.43,2.73-3.24,2.73-1.32,0-2.73-.51-3.77-1.34Z"></path>
  <path class="cls-1" d="M503.95,127.17h1.62v1.85h-1.62v-1.85ZM503.97,117.7v-1h1.58v1l-.42,7.84h-.76l-.4-7.84Z"></path>
  <path class="cls-1" d="M124.87,72.48c-.03-.62-.04-1.79-.02-3.04.01-.79-.62-1.44-1.41-1.44h-7.41c0,.44,0,.88,0,1.33-.86,26.73-23.22,47.7-49.95,46.84-26.73-.86-47.7-23.22-46.84-49.95.84-26.22,22.38-46.88,48.42-46.85.03-2.45.07-5.68.09-7.33,0-.6-.45-1.09-1.04-1.16-1.12-.13-1.82-.37-2.46-.62C60.22,8.69,61.8-.2,56.52,0c-1.61.06-8.11,1.66-9.72,2.27-5,1.91.28,9.05-2.13,12.59-.7,1.02-6.49,4.43-7.73,4.75-1.38.36-2.54.19-3.73-.52-2.63-1.58-5.74-6.67-9.13-4.35-1.09.74-6.63,6.06-7.36,7.11-2.79,3.98,4.51,7.47,4.66,11.27.02.59-.22,1.38-.44,1.93-.41,1.04-3.23,5.74-3.96,6.52-3.87,4.12-11.59-3.34-13.79,2.93-.61,1.73-2.56,7.83-2.67,9.33-.32,4.34,8.28,4.17,9.93,7.5.34.68.49,1.44.55,2.19.09,1.21-.09,6.1-.31,7.19C9.73,75.39.03,74.09,0,78.75c0,1.37,1.82,8.28,2.37,9.86,2.02,5.84,10-1,13.61,3.18.55.64,3.49,6.07,3.75,6.91,1.69,5.36-8.16,8.36-4.76,12.99,1.03,1.4,5.8,6.46,7.11,7.36.87.61,2.12.7,3.13.39,1.46-.45,4.59-3.86,6.3-4.68,1-.48,1.84-.57,2.93-.34.81.17,6.2,3.39,6.95,4.03.49.41,1.06,1.1,1.31,1.68,1.46,3.33-2.87,9.95.78,11.95,1.09.6,8.21,2.66,9.59,2.88,1.71.28,2.77.11,3.77-1.35,1.88-2.76,2.08-8.36,6.16-8.82,1.68-.19,6.89-.17,8.36.37,4.31,1.58,2.65,10.54,7.86,10.37,1.6-.05,8.34-1.71,9.92-2.32,1.21-.48,2.17-1.74,2.19-3.05.02-2.18-.98-5.12-.98-7.27,0-.77.52-1.85.98-2.46.65-.86,6.81-4.43,7.87-4.6,2.09-.34,2.79.27,4.33,1.38,2.34,1.69,4.89,5.47,8,3.71,1.13-.64,5.86-5.28,6.91-6.44,1.34-1.49,1.83-2.6.79-4.48-1.63-2.95-5.91-5.72-4.42-9.5.36-.9,3.34-5.83,3.97-6.51,2.49-2.68,6.68-.51,9.84-.37,1.71.08,2.63.11,3.52-1.49.63-1.14,3-9.12,3.09-10.4.35-4.96-10.09-3.74-10.38-9.24Z"></path>
  <path class="cls-2" d="M111.97,10.89h-25.77c-1.88,0-3.4,1.52-3.4,3.4v4.99c0,1.88,1.52,3.4,3.4,3.4h25.45c1.25,0,2.27,1.02,2.27,2.27v26.17c0,1.88,1.52,3.4,3.4,3.4h4.72c1.88,0,3.4-1.52,3.4-3.4v-28.44s0-6.87,0-6.87c0-2.71-2.2-4.91-4.91-4.91h-8.54Z"></path>
  <path class="cls-2" d="M133.84,10.89h27.6v.11c0,6.34-5.15,11.48-11.48,11.48h-16.12c-2.28,0-4.12-1.85-4.12-4.12v-3.34c0-2.28,1.85-4.12,4.12-4.12Z"></path>
</svg>
