<svg shape-rendering="geometricPrecision" text-rendering="geometricPrecision" width="1296" height="310" viewBox="0 0 1296 310" fill="none" xmlns="http://www.w3.org/2000/svg">
<g clip-path="url(#clip0_205_265)">
<path d="M296.7 61.6C277.123 35.6719 249.893 16.5509 218.858 6.93889C187.824 -2.67314 154.553 -2.29026 123.748 8.03343C92.9431 18.3571 66.1607 38.0997 47.1853 64.4715C28.2099 90.8433 18.001 122.511 18.001 155C18.001 187.489 28.2099 219.157 47.1853 245.529C66.1607 271.9 92.9431 291.643 123.748 301.967C154.553 312.29 187.824 312.673 218.858 303.061C249.893 293.449 277.123 274.328 296.7 248.4L245 199.5C235.336 214.972 220.899 226.877 203.869 233.417C186.84 239.956 168.145 240.775 150.61 235.748C133.074 230.722 117.651 220.124 106.673 205.556C95.6938 190.988 89.7557 173.242 89.7557 155C89.7557 136.758 95.6938 119.012 106.673 104.444C117.651 89.8765 133.074 79.2783 150.61 74.2519C168.145 69.2254 186.84 70.0438 203.869 76.5834C220.899 83.123 235.336 95.0284 245 110.5L296.7 61.6Z" fill="#111B31"/>
<path d="M87 233L0 305L38 193L87 233Z" fill="#111B31"/>
<path d="M250 145L344 92C360 131 360 179 344 218L250 165V145Z" fill="#1764F5"/>
<path d="M485.504 179.536C478.592 179.536 472.149 178.427 466.176 176.208C460.288 173.904 455.168 170.661 450.816 166.48C446.464 162.299 443.051 157.392 440.576 151.76C438.187 146.128 436.992 139.941 436.992 133.2C436.992 126.459 438.187 120.272 440.576 114.64C443.051 109.008 446.464 104.101 450.816 99.92C455.253 95.7387 460.416 92.5387 466.304 90.32C472.192 88.016 478.635 86.864 485.632 86.864C493.397 86.864 500.395 88.2293 506.624 90.96C512.939 93.6053 518.229 97.5307 522.496 102.736L509.184 115.024C506.112 111.525 502.699 108.923 498.944 107.216C495.189 105.424 491.093 104.528 486.656 104.528C482.475 104.528 478.635 105.211 475.136 106.576C471.637 107.941 468.608 109.904 466.048 112.464C463.488 115.024 461.483 118.053 460.032 121.552C458.667 125.051 457.984 128.933 457.984 133.2C457.984 137.467 458.667 141.349 460.032 144.848C461.483 148.347 463.488 151.376 466.048 153.936C468.608 156.496 471.637 158.459 475.136 159.824C478.635 161.189 482.475 161.872 486.656 161.872C491.093 161.872 495.189 161.019 498.944 159.312C502.699 157.52 506.112 154.832 509.184 151.248L522.496 163.536C518.229 168.741 512.939 172.709 506.624 175.44C500.395 178.171 493.355 179.536 485.504 179.536ZM564.234 179.024C556.895 179.024 550.367 177.488 544.65 174.416C539.018 171.344 534.538 167.163 531.21 161.872C527.967 156.496 526.346 150.395 526.346 143.568C526.346 136.656 527.967 130.555 531.21 125.264C534.538 119.888 539.018 115.707 544.65 112.72C550.367 109.648 556.895 108.112 564.234 108.112C571.487 108.112 577.973 109.648 583.69 112.72C589.407 115.707 593.887 119.845 597.13 125.136C600.373 130.427 601.994 136.571 601.994 143.568C601.994 150.395 600.373 156.496 597.13 161.872C593.887 167.163 589.407 171.344 583.69 174.416C577.973 177.488 571.487 179.024 564.234 179.024ZM564.234 162.64C567.562 162.64 570.549 161.872 573.194 160.336C575.839 158.8 577.93 156.624 579.466 153.808C581.002 150.907 581.77 147.493 581.77 143.568C581.77 139.557 581.002 136.144 579.466 133.328C577.93 130.512 575.839 128.336 573.194 126.8C570.549 125.264 567.562 124.496 564.234 124.496C560.906 124.496 557.919 125.264 555.274 126.8C552.629 128.336 550.495 130.512 548.874 133.328C547.338 136.144 546.57 139.557 546.57 143.568C546.57 147.493 547.338 150.907 548.874 153.808C550.495 156.624 552.629 158.8 555.274 160.336C557.919 161.872 560.906 162.64 564.234 162.64ZM615.341 178V109.136H634.413V127.952L630.829 122.448C633.218 117.755 636.589 114.213 640.941 111.824C645.378 109.349 650.413 108.112 656.045 108.112C662.36 108.112 667.864 109.733 672.557 112.976C677.336 116.133 680.493 120.997 682.029 127.568L674.989 125.648C677.293 120.272 680.962 116.005 685.997 112.848C691.117 109.691 696.962 108.112 703.533 108.112C708.994 108.112 713.816 109.221 717.997 111.44C722.264 113.573 725.592 116.901 727.981 121.424C730.456 125.861 731.693 131.579 731.693 138.576V178H711.725V141.648C711.725 136.101 710.573 132.005 708.269 129.36C705.965 126.715 702.722 125.392 698.541 125.392C695.64 125.392 693.037 126.075 690.733 127.44C688.429 128.72 686.637 130.683 685.357 133.328C684.077 135.973 683.437 139.344 683.437 143.44V178H663.469V141.648C663.469 136.101 662.317 132.005 660.013 129.36C657.794 126.715 654.594 125.392 650.413 125.392C647.512 125.392 644.909 126.075 642.605 127.44C640.301 128.72 638.509 130.683 637.229 133.328C635.949 135.973 635.309 139.344 635.309 143.44V178H615.341ZM778.647 179.024C772.93 179.024 767.81 177.915 763.287 175.696C758.85 173.477 755.394 170.107 752.919 165.584C750.444 160.976 749.207 155.131 749.207 148.048V109.136H769.175V145.104C769.175 150.821 770.37 155.045 772.759 157.776C775.234 160.421 778.69 161.744 783.127 161.744C786.199 161.744 788.93 161.104 791.319 159.824C793.708 158.459 795.586 156.411 796.951 153.68C798.316 150.864 798.999 147.365 798.999 143.184V109.136H818.967V178H800.023V159.056L803.479 164.56C801.175 169.339 797.762 172.965 793.239 175.44C788.802 177.829 783.938 179.024 778.647 179.024ZM837.466 178V109.136H856.538V128.208L852.954 122.448C855.429 117.84 858.97 114.299 863.578 111.824C868.186 109.349 873.434 108.112 879.322 108.112C884.783 108.112 889.647 109.221 893.914 111.44C898.266 113.573 901.679 116.901 904.154 121.424C906.629 125.861 907.866 131.579 907.866 138.576V178H887.898V141.648C887.898 136.101 886.661 132.005 884.186 129.36C881.797 126.715 878.383 125.392 873.946 125.392C870.789 125.392 867.93 126.075 865.37 127.44C862.895 128.72 860.933 130.725 859.482 133.456C858.117 136.187 857.434 139.685 857.434 143.952V178H837.466ZM925.966 178V109.136H945.934V178H925.966ZM935.95 99.536C932.281 99.536 929.294 98.4693 926.99 96.336C924.686 94.2027 923.534 91.5573 923.534 88.4C923.534 85.2427 924.686 82.5973 926.99 80.464C929.294 78.3307 932.281 77.264 935.95 77.264C939.619 77.264 942.606 78.288 944.91 80.336C947.214 82.2987 948.366 84.8587 948.366 88.016C948.366 91.344 947.214 94.1173 944.91 96.336C942.691 98.4693 939.705 99.536 935.95 99.536ZM980.978 163.92L981.49 139.6L1013.62 109.136H1037.43L1006.58 140.496L996.21 148.944L980.978 163.92ZM964.466 178V83.024H984.434V178H964.466ZM1015.79 178L992.498 149.072L1005.04 133.584L1039.99 178H1015.79Z" fill="#111B31"/>
<path d="M1091.46 178V164.56L1090.18 161.616V137.552C1090.18 133.285 1088.85 129.957 1086.21 127.568C1083.65 125.179 1079.68 123.984 1074.3 123.984C1070.63 123.984 1067.01 124.581 1063.42 125.776C1059.93 126.885 1056.94 128.421 1054.46 130.384L1047.3 116.432C1051.05 113.787 1055.57 111.739 1060.86 110.288C1066.15 108.837 1071.53 108.112 1076.99 108.112C1087.49 108.112 1095.64 110.587 1101.44 115.536C1107.24 120.485 1110.14 128.208 1110.14 138.704V178H1091.46ZM1070.46 179.024C1065.09 179.024 1060.48 178.128 1056.64 176.336C1052.8 174.459 1049.86 171.941 1047.81 168.784C1045.76 165.627 1044.74 162.085 1044.74 158.16C1044.74 154.064 1045.72 150.48 1047.68 147.408C1049.73 144.336 1052.93 141.947 1057.28 140.24C1061.63 138.448 1067.31 137.552 1074.3 137.552H1092.61V149.2H1076.48C1071.79 149.2 1068.54 149.968 1066.75 151.504C1065.05 153.04 1064.19 154.96 1064.19 157.264C1064.19 159.824 1065.17 161.872 1067.14 163.408C1069.18 164.859 1071.96 165.584 1075.46 165.584C1078.78 165.584 1081.77 164.816 1084.42 163.28C1087.06 161.659 1088.98 159.312 1090.18 156.24L1093.25 165.456C1091.8 169.893 1089.15 173.264 1085.31 175.568C1081.47 177.872 1076.52 179.024 1070.46 179.024ZM1168.92 179.024C1163.12 179.024 1158.04 177.744 1153.69 175.184C1149.34 172.624 1145.92 168.741 1143.45 163.536C1141.06 158.245 1139.86 151.589 1139.86 143.568C1139.86 135.461 1141.02 128.805 1143.32 123.6C1145.62 118.395 1148.95 114.512 1153.3 111.952C1157.66 109.392 1162.86 108.112 1168.92 108.112C1175.41 108.112 1181.21 109.605 1186.33 112.592C1191.53 115.493 1195.63 119.589 1198.62 124.88C1201.69 130.171 1203.22 136.4 1203.22 143.568C1203.22 150.821 1201.69 157.093 1198.62 162.384C1195.63 167.675 1191.53 171.771 1186.33 174.672C1181.21 177.573 1175.41 179.024 1168.92 179.024ZM1128.22 202.832V109.136H1147.29V123.216L1146.9 143.696L1148.18 164.048V202.832H1128.22ZM1165.46 162.64C1168.79 162.64 1171.74 161.872 1174.3 160.336C1176.94 158.8 1179.03 156.624 1180.57 153.808C1182.19 150.907 1183 147.493 1183 143.568C1183 139.557 1182.19 136.144 1180.57 133.328C1179.03 130.512 1176.94 128.336 1174.3 126.8C1171.74 125.264 1168.79 124.496 1165.46 124.496C1162.14 124.496 1159.15 125.264 1156.5 126.8C1153.86 128.336 1151.77 130.512 1150.23 133.328C1148.7 136.144 1147.93 139.557 1147.93 143.568C1147.93 147.493 1148.7 150.907 1150.23 153.808C1151.77 156.624 1153.86 158.8 1156.5 160.336C1159.15 161.872 1162.14 162.64 1165.46 162.64ZM1257.3 179.024C1251.49 179.024 1246.42 177.744 1242.06 175.184C1237.71 172.624 1234.3 168.741 1231.82 163.536C1229.43 158.245 1228.24 151.589 1228.24 143.568C1228.24 135.461 1229.39 128.805 1231.7 123.6C1234 118.395 1237.33 114.512 1241.68 111.952C1246.03 109.392 1251.24 108.112 1257.3 108.112C1263.78 108.112 1269.58 109.605 1274.7 112.592C1279.91 115.493 1284 119.589 1286.99 124.88C1290.06 130.171 1291.6 136.4 1291.6 143.568C1291.6 150.821 1290.06 157.093 1286.99 162.384C1284 167.675 1279.91 171.771 1274.7 174.672C1269.58 177.573 1263.78 179.024 1257.3 179.024ZM1216.59 202.832V109.136H1235.66V123.216L1235.28 143.696L1236.56 164.048V202.832H1216.59ZM1253.84 162.64C1257.17 162.64 1260.11 161.872 1262.67 160.336C1265.32 158.8 1267.41 156.624 1268.94 153.808C1270.56 150.907 1271.38 147.493 1271.38 143.568C1271.38 139.557 1270.56 136.144 1268.94 133.328C1267.41 130.512 1265.32 128.336 1262.67 126.8C1260.11 125.264 1257.17 124.496 1253.84 124.496C1250.51 124.496 1247.52 125.264 1244.88 126.8C1242.23 128.336 1240.14 130.512 1238.61 133.328C1237.07 136.144 1236.3 139.557 1236.3 143.568C1236.3 147.493 1237.07 150.907 1238.61 153.808C1240.14 156.624 1242.23 158.8 1244.88 160.336C1247.52 161.872 1250.51 162.64 1253.84 162.64Z" fill="#1764F5"/>
<path d="M441.133 266L454.253 237.3H457.246L470.366 266H467.168L455.114 239.063H456.344L444.29 266H441.133ZM446.299 258.333L447.201 255.873H463.888L464.79 258.333H446.299ZM491.01 266.205C489.233 266.205 487.552 265.959 485.967 265.467C484.382 264.948 483.138 264.305 482.236 263.54L483.548 261.244C484.423 261.9 485.543 262.474 486.91 262.966C488.277 263.431 489.712 263.663 491.215 263.663C493.265 263.663 494.741 263.349 495.643 262.72C496.545 262.064 496.996 261.203 496.996 260.137C496.996 259.344 496.736 258.729 496.217 258.292C495.725 257.827 495.069 257.486 494.249 257.267C493.429 257.021 492.513 256.816 491.502 256.652C490.491 256.488 489.479 256.297 488.468 256.078C487.484 255.859 486.582 255.545 485.762 255.135C484.942 254.698 484.272 254.11 483.753 253.372C483.261 252.634 483.015 251.65 483.015 250.42C483.015 249.245 483.343 248.192 483.999 247.263C484.655 246.334 485.612 245.609 486.869 245.09C488.154 244.543 489.712 244.27 491.543 244.27C492.937 244.27 494.331 244.461 495.725 244.844C497.119 245.199 498.267 245.678 499.169 246.279L497.898 248.616C496.941 247.96 495.916 247.495 494.823 247.222C493.73 246.921 492.636 246.771 491.543 246.771C489.602 246.771 488.167 247.113 487.238 247.796C486.336 248.452 485.885 249.299 485.885 250.338C485.885 251.158 486.131 251.8 486.623 252.265C487.142 252.73 487.812 253.099 488.632 253.372C489.479 253.618 490.395 253.823 491.379 253.987C492.39 254.151 493.388 254.356 494.372 254.602C495.383 254.821 496.299 255.135 497.119 255.545C497.966 255.928 498.636 256.488 499.128 257.226C499.647 257.937 499.907 258.88 499.907 260.055C499.907 261.312 499.552 262.406 498.841 263.335C498.158 264.237 497.146 264.948 495.807 265.467C494.495 265.959 492.896 266.205 491.01 266.205ZM514.145 266.205C512.314 266.205 510.715 265.863 509.348 265.18C507.982 264.497 506.916 263.472 506.15 262.105C505.412 260.738 505.043 259.03 505.043 256.98V244.475H507.954V256.652C507.954 258.948 508.515 260.684 509.635 261.859C510.783 263.007 512.382 263.581 514.432 263.581C515.936 263.581 517.234 263.28 518.327 262.679C519.448 262.05 520.295 261.148 520.869 259.973C521.471 258.798 521.771 257.39 521.771 255.75V244.475H524.682V266H521.894V260.096L522.345 261.162C521.662 262.747 520.596 263.991 519.147 264.893C517.726 265.768 516.059 266.205 514.145 266.205ZM546.284 266V261.244L546.161 260.465V252.511C546.161 250.68 545.642 249.272 544.603 248.288C543.592 247.304 542.075 246.812 540.052 246.812C538.658 246.812 537.333 247.044 536.075 247.509C534.818 247.974 533.752 248.589 532.877 249.354L531.565 247.181C532.659 246.252 533.971 245.541 535.501 245.049C537.032 244.53 538.645 244.27 540.339 244.27C543.127 244.27 545.273 244.967 546.776 246.361C548.307 247.728 549.072 249.819 549.072 252.634V266H546.284ZM538.863 266.205C537.251 266.205 535.843 265.945 534.64 265.426C533.465 264.879 532.563 264.141 531.934 263.212C531.306 262.255 530.991 261.162 530.991 259.932C530.991 258.811 531.251 257.8 531.77 256.898C532.317 255.969 533.192 255.231 534.394 254.684C535.624 254.11 537.264 253.823 539.314 253.823H546.735V255.996H539.396C537.319 255.996 535.87 256.365 535.05 257.103C534.258 257.841 533.861 258.757 533.861 259.85C533.861 261.08 534.34 262.064 535.296 262.802C536.253 263.54 537.592 263.909 539.314 263.909C540.954 263.909 542.362 263.54 543.537 262.802C544.74 262.037 545.615 260.943 546.161 259.522L546.817 261.531C546.271 262.952 545.314 264.087 543.947 264.934C542.608 265.781 540.913 266.205 538.863 266.205ZM578.82 266.205C576.962 266.205 575.281 265.781 573.777 264.934C572.274 264.059 571.071 262.816 570.169 261.203C569.295 259.563 568.857 257.568 568.857 255.217C568.857 252.866 569.295 250.885 570.169 249.272C571.044 247.632 572.233 246.388 573.736 245.541C575.24 244.694 576.934 244.27 578.82 244.27C580.87 244.27 582.702 244.735 584.314 245.664C585.954 246.566 587.239 247.851 588.168 249.518C589.098 251.158 589.562 253.058 589.562 255.217C589.562 257.404 589.098 259.317 588.168 260.957C587.239 262.597 585.954 263.882 584.314 264.811C582.702 265.74 580.87 266.205 578.82 266.205ZM567.709 273.954V244.475H570.497V250.953L570.21 255.258L570.62 259.604V273.954H567.709ZM578.615 263.622C580.146 263.622 581.513 263.28 582.715 262.597C583.918 261.886 584.875 260.902 585.585 259.645C586.296 258.36 586.651 256.884 586.651 255.217C586.651 253.55 586.296 252.087 585.585 250.83C584.875 249.573 583.918 248.589 582.715 247.878C581.513 247.167 580.146 246.812 578.615 246.812C577.085 246.812 575.704 247.167 574.474 247.878C573.272 248.589 572.315 249.573 571.604 250.83C570.921 252.087 570.579 253.55 570.579 255.217C570.579 256.884 570.921 258.36 571.604 259.645C572.315 260.902 573.272 261.886 574.474 262.597C575.704 263.28 577.085 263.622 578.615 263.622ZM595.497 266V235.578H598.408V266H595.497ZM619.996 266V261.244L619.873 260.465V252.511C619.873 250.68 619.354 249.272 618.315 248.288C617.304 247.304 615.787 246.812 613.764 246.812C612.37 246.812 611.045 247.044 609.787 247.509C608.53 247.974 607.464 248.589 606.589 249.354L605.277 247.181C606.371 246.252 607.683 245.541 609.213 245.049C610.744 244.53 612.357 244.27 614.051 244.27C616.839 244.27 618.985 244.967 620.488 246.361C622.019 247.728 622.784 249.819 622.784 252.634V266H619.996ZM612.575 266.205C610.963 266.205 609.555 265.945 608.352 265.426C607.177 264.879 606.275 264.141 605.646 263.212C605.018 262.255 604.703 261.162 604.703 259.932C604.703 258.811 604.963 257.8 605.482 256.898C606.029 255.969 606.904 255.231 608.106 254.684C609.336 254.11 610.976 253.823 613.026 253.823H620.447V255.996H613.108C611.031 255.996 609.582 256.365 608.762 257.103C607.97 257.841 607.573 258.757 607.573 259.85C607.573 261.08 608.052 262.064 609.008 262.802C609.965 263.54 611.304 263.909 613.026 263.909C614.666 263.909 616.074 263.54 617.249 262.802C618.452 262.037 619.327 260.943 619.873 259.522L620.529 261.531C619.983 262.952 619.026 264.087 617.659 264.934C616.32 265.781 614.625 266.205 612.575 266.205ZM637.497 266.205C635.474 266.205 633.916 265.658 632.823 264.565C631.73 263.472 631.183 261.927 631.183 259.932V239.719H634.094V259.768C634.094 261.025 634.408 261.996 635.037 262.679C635.693 263.362 636.622 263.704 637.825 263.704C639.11 263.704 640.176 263.335 641.023 262.597L642.048 264.688C641.474 265.207 640.777 265.59 639.957 265.836C639.164 266.082 638.344 266.205 637.497 266.205ZM627.329 246.894V244.475H640.654V246.894H627.329ZM660.035 266V261.244L659.912 260.465V252.511C659.912 250.68 659.393 249.272 658.354 248.288C657.343 247.304 655.826 246.812 653.803 246.812C652.409 246.812 651.084 247.044 649.826 247.509C648.569 247.974 647.503 248.589 646.628 249.354L645.316 247.181C646.41 246.252 647.722 245.541 649.252 245.049C650.783 244.53 652.396 244.27 654.09 244.27C656.878 244.27 659.024 244.967 660.527 246.361C662.058 247.728 662.823 249.819 662.823 252.634V266H660.035ZM652.614 266.205C651.002 266.205 649.594 265.945 648.391 265.426C647.216 264.879 646.314 264.141 645.685 263.212C645.057 262.255 644.742 261.162 644.742 259.932C644.742 258.811 645.002 257.8 645.521 256.898C646.068 255.969 646.943 255.231 648.145 254.684C649.375 254.11 651.015 253.823 653.065 253.823H660.486V255.996H653.147C651.07 255.996 649.621 256.365 648.801 257.103C648.009 257.841 647.612 258.757 647.612 259.85C647.612 261.08 648.091 262.064 649.047 262.802C650.004 263.54 651.343 263.909 653.065 263.909C654.705 263.909 656.113 263.54 657.288 262.802C658.491 262.037 659.366 260.943 659.912 259.522L660.568 261.531C660.022 262.952 659.065 264.087 657.698 264.934C656.359 265.781 654.664 266.205 652.614 266.205ZM671.222 266V241.769C671.222 239.856 671.782 238.311 672.903 237.136C674.024 235.961 675.636 235.373 677.741 235.373C678.561 235.373 679.354 235.482 680.119 235.701C680.884 235.92 681.527 236.261 682.046 236.726L681.062 238.899C680.652 238.544 680.174 238.284 679.627 238.12C679.08 237.929 678.493 237.833 677.864 237.833C676.634 237.833 675.691 238.175 675.035 238.858C674.379 239.541 674.051 240.553 674.051 241.892V245.172L674.133 246.525V266H671.222ZM667.368 246.894V244.475H680.693V246.894H667.368ZM693.037 266.205C690.96 266.205 689.087 265.74 687.42 264.811C685.78 263.854 684.482 262.556 683.525 260.916C682.568 259.249 682.09 257.349 682.09 255.217C682.09 253.058 682.568 251.158 683.525 249.518C684.482 247.878 685.78 246.593 687.42 245.664C689.06 244.735 690.932 244.27 693.037 244.27C695.169 244.27 697.055 244.735 698.695 245.664C700.362 246.593 701.661 247.878 702.59 249.518C703.547 251.158 704.025 253.058 704.025 255.217C704.025 257.349 703.547 259.249 702.59 260.916C701.661 262.556 700.362 263.854 698.695 264.811C697.028 265.74 695.142 266.205 693.037 266.205ZM693.037 263.622C694.595 263.622 695.975 263.28 697.178 262.597C698.381 261.886 699.324 260.902 700.007 259.645C700.718 258.36 701.073 256.884 701.073 255.217C701.073 253.522 700.718 252.046 700.007 250.789C699.324 249.532 698.381 248.561 697.178 247.878C695.975 247.167 694.609 246.812 693.078 246.812C691.547 246.812 690.181 247.167 688.978 247.878C687.775 248.561 686.819 249.532 686.108 250.789C685.397 252.046 685.042 253.522 685.042 255.217C685.042 256.884 685.397 258.36 686.108 259.645C686.819 260.902 687.775 261.886 688.978 262.597C690.181 263.28 691.534 263.622 693.037 263.622ZM709.968 266V244.475H712.756V250.338L712.469 249.313C713.071 247.673 714.082 246.429 715.503 245.582C716.925 244.707 718.688 244.27 720.792 244.27V247.099C720.683 247.099 720.574 247.099 720.464 247.099C720.355 247.072 720.246 247.058 720.136 247.058C717.868 247.058 716.091 247.755 714.806 249.149C713.522 250.516 712.879 252.47 712.879 255.012V266H709.968ZM726.104 266V244.475H728.892V250.297L728.441 249.272C729.097 247.714 730.149 246.498 731.598 245.623C733.074 244.721 734.81 244.27 736.805 244.27C738.91 244.27 740.7 244.803 742.176 245.869C743.652 246.908 744.609 248.479 745.046 250.584L743.898 250.133C744.527 248.384 745.634 246.976 747.219 245.91C748.832 244.817 750.759 244.27 753 244.27C754.749 244.27 756.266 244.612 757.551 245.295C758.863 245.951 759.874 246.962 760.585 248.329C761.323 249.696 761.692 251.418 761.692 253.495V266H758.781V253.782C758.781 251.513 758.234 249.805 757.141 248.657C756.075 247.482 754.558 246.894 752.59 246.894C751.114 246.894 749.829 247.208 748.736 247.837C747.67 248.438 746.836 249.327 746.235 250.502C745.661 251.65 745.374 253.044 745.374 254.684V266H742.463V253.782C742.463 251.513 741.916 249.805 740.823 248.657C739.73 247.482 738.199 246.894 736.231 246.894C734.782 246.894 733.511 247.208 732.418 247.837C731.325 248.438 730.477 249.327 729.876 250.502C729.302 251.65 729.015 253.044 729.015 254.684V266H726.104ZM783.075 266V261.244L782.952 260.465V252.511C782.952 250.68 782.433 249.272 781.394 248.288C780.383 247.304 778.866 246.812 776.843 246.812C775.449 246.812 774.124 247.044 772.866 247.509C771.609 247.974 770.543 248.589 769.668 249.354L768.356 247.181C769.45 246.252 770.762 245.541 772.292 245.049C773.823 244.53 775.436 244.27 777.13 244.27C779.918 244.27 782.064 244.967 783.567 246.361C785.098 247.728 785.863 249.819 785.863 252.634V266H783.075ZM775.654 266.205C774.042 266.205 772.634 265.945 771.431 265.426C770.256 264.879 769.354 264.141 768.725 263.212C768.097 262.255 767.782 261.162 767.782 259.932C767.782 258.811 768.042 257.8 768.561 256.898C769.108 255.969 769.983 255.231 771.185 254.684C772.415 254.11 774.055 253.823 776.105 253.823H783.526V255.996H776.187C774.11 255.996 772.661 256.365 771.841 257.103C771.049 257.841 770.652 258.757 770.652 259.85C770.652 261.08 771.131 262.064 772.087 262.802C773.044 263.54 774.383 263.909 776.105 263.909C777.745 263.909 779.153 263.54 780.328 262.802C781.531 262.037 782.406 260.943 782.952 259.522L783.608 261.531C783.062 262.952 782.105 264.087 780.738 264.934C779.399 265.781 777.704 266.205 775.654 266.205ZM813.069 266.205C811.019 266.205 809.174 265.74 807.534 264.811C805.922 263.882 804.651 262.597 803.721 260.957C802.792 259.29 802.327 257.376 802.327 255.217C802.327 253.03 802.792 251.117 803.721 249.477C804.651 247.837 805.922 246.566 807.534 245.664C809.174 244.735 811.019 244.27 813.069 244.27C814.955 244.27 816.636 244.694 818.112 245.541C819.616 246.388 820.805 247.632 821.679 249.272C822.581 250.885 823.032 252.866 823.032 255.217C823.032 257.54 822.595 259.522 821.72 261.162C820.846 262.802 819.657 264.059 818.153 264.934C816.677 265.781 814.983 266.205 813.069 266.205ZM813.274 263.622C814.805 263.622 816.172 263.28 817.374 262.597C818.604 261.886 819.561 260.902 820.244 259.645C820.955 258.36 821.31 256.884 821.31 255.217C821.31 253.522 820.955 252.046 820.244 250.789C819.561 249.532 818.604 248.561 817.374 247.878C816.172 247.167 814.805 246.812 813.274 246.812C811.771 246.812 810.418 247.167 809.215 247.878C808.013 248.561 807.056 249.532 806.345 250.789C805.635 252.046 805.279 253.522 805.279 255.217C805.279 256.884 805.635 258.36 806.345 259.645C807.056 260.902 808.013 261.886 809.215 262.597C810.418 263.28 811.771 263.622 813.274 263.622ZM821.392 266V259.522L821.679 255.176L821.269 250.83V235.578H824.18V266H821.392ZM841.431 266.205C839.189 266.205 837.221 265.74 835.527 264.811C833.832 263.854 832.506 262.556 831.55 260.916C830.593 259.249 830.115 257.349 830.115 255.217C830.115 253.085 830.566 251.199 831.468 249.559C832.397 247.919 833.654 246.634 835.24 245.705C836.852 244.748 838.656 244.27 840.652 244.27C842.674 244.27 844.465 244.735 846.023 245.664C847.608 246.566 848.852 247.851 849.754 249.518C850.656 251.158 851.107 253.058 851.107 255.217C851.107 255.354 851.093 255.504 851.066 255.668C851.066 255.805 851.066 255.955 851.066 256.119H832.329V253.946H849.508L848.36 254.807C848.36 253.249 848.018 251.869 847.335 250.666C846.679 249.436 845.777 248.479 844.629 247.796C843.481 247.113 842.155 246.771 840.652 246.771C839.176 246.771 837.85 247.113 836.675 247.796C835.499 248.479 834.584 249.436 833.928 250.666C833.272 251.896 832.944 253.304 832.944 254.889V255.34C832.944 256.98 833.299 258.429 834.01 259.686C834.748 260.916 835.759 261.886 837.044 262.597C838.356 263.28 839.845 263.622 841.513 263.622C842.825 263.622 844.041 263.39 845.162 262.925C846.31 262.46 847.294 261.75 848.114 260.793L849.754 262.679C848.797 263.827 847.594 264.702 846.146 265.303C844.724 265.904 843.153 266.205 841.431 266.205ZM880.841 266.246C878.682 266.246 876.686 265.891 874.855 265.18C873.024 264.442 871.438 263.417 870.099 262.105C868.76 260.793 867.707 259.249 866.942 257.472C866.204 255.695 865.835 253.755 865.835 251.65C865.835 249.545 866.204 247.605 866.942 245.828C867.707 244.051 868.76 242.507 870.099 241.195C871.466 239.883 873.065 238.872 874.896 238.161C876.727 237.423 878.723 237.054 880.882 237.054C882.959 237.054 884.914 237.409 886.745 238.12C888.576 238.803 890.121 239.842 891.378 241.236L889.451 243.163C888.276 241.96 886.977 241.099 885.556 240.58C884.135 240.033 882.604 239.76 880.964 239.76C879.242 239.76 877.643 240.061 876.167 240.662C874.691 241.236 873.406 242.07 872.313 243.163C871.22 244.229 870.359 245.486 869.73 246.935C869.129 248.356 868.828 249.928 868.828 251.65C868.828 253.372 869.129 254.957 869.73 256.406C870.359 257.827 871.22 259.085 872.313 260.178C873.406 261.244 874.691 262.078 876.167 262.679C877.643 263.253 879.242 263.54 880.964 263.54C882.604 263.54 884.135 263.267 885.556 262.72C886.977 262.173 888.276 261.299 889.451 260.096L891.378 262.023C890.121 263.417 888.576 264.469 886.745 265.18C884.914 265.891 882.946 266.246 880.841 266.246ZM904.644 266.205C902.566 266.205 900.694 265.74 899.027 264.811C897.387 263.854 896.088 262.556 895.132 260.916C894.175 259.249 893.697 257.349 893.697 255.217C893.697 253.058 894.175 251.158 895.132 249.518C896.088 247.878 897.387 246.593 899.027 245.664C900.667 244.735 902.539 244.27 904.644 244.27C906.776 244.27 908.662 244.735 910.302 245.664C911.969 246.593 913.267 247.878 914.197 249.518C915.153 251.158 915.632 253.058 915.632 255.217C915.632 257.349 915.153 259.249 914.197 260.916C913.267 262.556 911.969 263.854 910.302 264.811C908.634 265.74 906.748 266.205 904.644 266.205ZM904.644 263.622C906.202 263.622 907.582 263.28 908.785 262.597C909.987 261.886 910.93 260.902 911.614 259.645C912.324 258.36 912.68 256.884 912.68 255.217C912.68 253.522 912.324 252.046 911.614 250.789C910.93 249.532 909.987 248.561 908.785 247.878C907.582 247.167 906.215 246.812 904.685 246.812C903.154 246.812 901.787 247.167 900.585 247.878C899.382 248.561 898.425 249.532 897.715 250.789C897.004 252.046 896.649 253.522 896.649 255.217C896.649 256.884 897.004 258.36 897.715 259.645C898.425 260.902 899.382 261.886 900.585 262.597C901.787 263.28 903.14 263.622 904.644 263.622ZM921.575 266V244.475H924.363V250.297L923.912 249.272C924.568 247.714 925.62 246.498 927.069 245.623C928.545 244.721 930.28 244.27 932.276 244.27C934.38 244.27 936.171 244.803 937.647 245.869C939.123 246.908 940.079 248.479 940.517 250.584L939.369 250.133C939.997 248.384 941.104 246.976 942.69 245.91C944.302 244.817 946.229 244.27 948.471 244.27C950.22 244.27 951.737 244.612 953.022 245.295C954.334 245.951 955.345 246.962 956.056 248.329C956.794 249.696 957.163 251.418 957.163 253.495V266H954.252V253.782C954.252 251.513 953.705 249.805 952.612 248.657C951.546 247.482 950.029 246.894 948.061 246.894C946.585 246.894 945.3 247.208 944.207 247.837C943.141 248.438 942.307 249.327 941.706 250.502C941.132 251.65 940.845 253.044 940.845 254.684V266H937.934V253.782C937.934 251.513 937.387 249.805 936.294 248.657C935.2 247.482 933.67 246.894 931.702 246.894C930.253 246.894 928.982 247.208 927.889 247.837C926.795 248.438 925.948 249.327 925.347 250.502C924.773 251.65 924.486 253.044 924.486 254.684V266H921.575ZM973.954 266.205C972.123 266.205 970.524 265.863 969.157 265.18C967.79 264.497 966.724 263.472 965.959 262.105C965.221 260.738 964.852 259.03 964.852 256.98V244.475H967.763V256.652C967.763 258.948 968.323 260.684 969.444 261.859C970.592 263.007 972.191 263.581 974.241 263.581C975.744 263.581 977.043 263.28 978.136 262.679C979.257 262.05 980.104 261.148 980.678 259.973C981.279 258.798 981.58 257.39 981.58 255.75V244.475H984.491V266H981.703V260.096L982.154 261.162C981.471 262.747 980.405 263.991 978.956 264.893C977.535 265.768 975.867 266.205 973.954 266.205ZM992.604 266V244.475H995.392V250.379L994.941 249.272C995.624 247.714 996.718 246.498 998.221 245.623C999.724 244.721 1001.51 244.27 1003.59 244.27C1005.34 244.27 1006.87 244.612 1008.18 245.295C1009.52 245.951 1010.56 246.962 1011.3 248.329C1012.07 249.696 1012.45 251.418 1012.45 253.495V266H1009.54V253.782C1009.54 251.513 1008.96 249.805 1007.81 248.657C1006.69 247.482 1005.11 246.894 1003.06 246.894C1001.53 246.894 1000.19 247.208 999.041 247.837C997.92 248.438 997.046 249.327 996.417 250.502C995.816 251.65 995.515 253.044 995.515 254.684V266H992.604ZM1020.31 266V244.475H1023.22V266H1020.31ZM1021.79 239.719C1021.19 239.719 1020.68 239.514 1020.27 239.104C1019.86 238.694 1019.65 238.202 1019.65 237.628C1019.65 237.054 1019.86 236.576 1020.27 236.193C1020.68 235.783 1021.19 235.578 1021.79 235.578C1022.39 235.578 1022.89 235.769 1023.3 236.152C1023.71 236.535 1023.92 237.013 1023.92 237.587C1023.92 238.188 1023.71 238.694 1023.3 239.104C1022.92 239.514 1022.42 239.719 1021.79 239.719ZM1040.26 266.205C1038.13 266.205 1036.21 265.74 1034.52 264.811C1032.85 263.854 1031.54 262.556 1030.58 260.916C1029.63 259.249 1029.15 257.349 1029.15 255.217C1029.15 253.058 1029.63 251.158 1030.58 249.518C1031.54 247.878 1032.85 246.593 1034.52 245.664C1036.21 244.735 1038.13 244.27 1040.26 244.27C1042.09 244.27 1043.74 244.625 1045.22 245.336C1046.7 246.047 1047.86 247.113 1048.71 248.534L1046.53 250.01C1045.79 248.917 1044.88 248.11 1043.79 247.591C1042.69 247.072 1041.5 246.812 1040.22 246.812C1038.69 246.812 1037.31 247.167 1036.08 247.878C1034.85 248.561 1033.88 249.532 1033.17 250.789C1032.46 252.046 1032.1 253.522 1032.1 255.217C1032.1 256.912 1032.46 258.388 1033.17 259.645C1033.88 260.902 1034.85 261.886 1036.08 262.597C1037.31 263.28 1038.69 263.622 1040.22 263.622C1041.5 263.622 1042.69 263.362 1043.79 262.843C1044.88 262.324 1045.79 261.531 1046.53 260.465L1048.71 261.941C1047.86 263.335 1046.7 264.401 1045.22 265.139C1043.74 265.85 1042.09 266.205 1040.26 266.205ZM1067.91 266V261.244L1067.79 260.465V252.511C1067.79 250.68 1067.27 249.272 1066.23 248.288C1065.22 247.304 1063.7 246.812 1061.68 246.812C1060.29 246.812 1058.96 247.044 1057.7 247.509C1056.45 247.974 1055.38 248.589 1054.51 249.354L1053.19 247.181C1054.29 246.252 1055.6 245.541 1057.13 245.049C1058.66 244.53 1060.27 244.27 1061.97 244.27C1064.76 244.27 1066.9 244.967 1068.41 246.361C1069.94 247.728 1070.7 249.819 1070.7 252.634V266H1067.91ZM1060.49 266.205C1058.88 266.205 1057.47 265.945 1056.27 265.426C1055.09 264.879 1054.19 264.141 1053.56 263.212C1052.93 262.255 1052.62 261.162 1052.62 259.932C1052.62 258.811 1052.88 257.8 1053.4 256.898C1053.95 255.969 1054.82 255.231 1056.02 254.684C1057.25 254.11 1058.89 253.823 1060.94 253.823H1068.36V255.996H1061.03C1058.95 255.996 1057.5 256.365 1056.68 257.103C1055.89 257.841 1055.49 258.757 1055.49 259.85C1055.49 261.08 1055.97 262.064 1056.93 262.802C1057.88 263.54 1059.22 263.909 1060.94 263.909C1062.58 263.909 1063.99 263.54 1065.17 262.802C1066.37 262.037 1067.24 260.943 1067.79 259.522L1068.45 261.531C1067.9 262.952 1066.94 264.087 1065.58 264.934C1064.24 265.781 1062.54 266.205 1060.49 266.205ZM1087.55 266.205C1085.41 266.205 1083.5 265.74 1081.81 264.811C1080.14 263.854 1078.83 262.556 1077.87 260.916C1076.91 259.249 1076.43 257.349 1076.43 255.217C1076.43 253.058 1076.91 251.158 1077.87 249.518C1078.83 247.878 1080.14 246.593 1081.81 245.664C1083.5 244.735 1085.41 244.27 1087.55 244.27C1089.38 244.27 1091.03 244.625 1092.51 245.336C1093.98 246.047 1095.14 247.113 1095.99 248.534L1093.82 250.01C1093.08 248.917 1092.17 248.11 1091.07 247.591C1089.98 247.072 1088.79 246.812 1087.5 246.812C1085.97 246.812 1084.59 247.167 1083.36 247.878C1082.13 248.561 1081.16 249.532 1080.45 250.789C1079.74 252.046 1079.39 253.522 1079.39 255.217C1079.39 256.912 1079.74 258.388 1080.45 259.645C1081.16 260.902 1082.13 261.886 1083.36 262.597C1084.59 263.28 1085.97 263.622 1087.5 263.622C1088.79 263.622 1089.98 263.362 1091.07 262.843C1092.17 262.324 1093.08 261.531 1093.82 260.465L1095.99 261.941C1095.14 263.335 1093.98 264.401 1092.51 265.139C1091.03 265.85 1089.38 266.205 1087.55 266.205ZM1086.07 275.02C1085.39 275.02 1084.76 274.938 1084.18 274.774C1083.64 274.61 1083.12 274.378 1082.63 274.077L1083.32 272.519C1083.73 272.765 1084.16 272.956 1084.59 273.093C1085.06 273.23 1085.54 273.298 1086.03 273.298C1086.85 273.298 1087.48 273.12 1087.91 272.765C1088.35 272.437 1088.57 271.972 1088.57 271.371C1088.57 270.824 1088.35 270.373 1087.91 270.018C1087.5 269.663 1086.88 269.485 1086.03 269.485H1085.09L1086.07 265.754H1087.83L1087.22 268.132C1088.34 268.214 1089.2 268.556 1089.8 269.157C1090.4 269.786 1090.7 270.551 1090.7 271.453C1090.7 272.546 1090.27 273.407 1089.39 274.036C1088.54 274.692 1087.44 275.02 1086.07 275.02ZM1115.2 266V261.244L1115.08 260.465V252.511C1115.08 250.68 1114.56 249.272 1113.52 248.288C1112.51 247.304 1110.99 246.812 1108.97 246.812C1107.57 246.812 1106.25 247.044 1104.99 247.509C1103.73 247.974 1102.67 248.589 1101.79 249.354L1100.48 247.181C1101.57 246.252 1102.89 245.541 1104.42 245.049C1105.95 244.53 1107.56 244.27 1109.25 244.27C1112.04 244.27 1114.19 244.967 1115.69 246.361C1117.22 247.728 1117.99 249.819 1117.99 252.634V266H1115.2ZM1107.78 266.205C1106.17 266.205 1104.76 265.945 1103.56 265.426C1102.38 264.879 1101.48 264.141 1100.85 263.212C1100.22 262.255 1099.91 261.162 1099.91 259.932C1099.91 258.811 1100.17 257.8 1100.69 256.898C1101.23 255.969 1102.11 255.231 1103.31 254.684C1104.54 254.11 1106.18 253.823 1108.23 253.823H1115.65V255.996H1108.31C1106.23 255.996 1104.79 256.365 1103.97 257.103C1103.17 257.841 1102.78 258.757 1102.78 259.85C1102.78 261.08 1103.25 262.064 1104.21 262.802C1105.17 263.54 1106.51 263.909 1108.23 263.909C1109.87 263.909 1111.28 263.54 1112.45 262.802C1113.66 262.037 1114.53 260.943 1115.08 259.522L1115.73 261.531C1115.19 262.952 1114.23 264.087 1112.86 264.934C1111.52 265.781 1109.83 266.205 1107.78 266.205ZM1112.12 240.867C1111.5 240.867 1110.94 240.73 1110.44 240.457C1109.95 240.184 1109.5 239.869 1109.09 239.514C1108.71 239.131 1108.33 238.803 1107.94 238.53C1107.56 238.229 1107.16 238.079 1106.75 238.079C1106.12 238.079 1105.62 238.311 1105.24 238.776C1104.88 239.241 1104.68 239.883 1104.62 240.703H1102.86C1102.91 239.336 1103.27 238.243 1103.92 237.423C1104.61 236.603 1105.48 236.193 1106.55 236.193C1107.18 236.193 1107.74 236.343 1108.23 236.644C1108.75 236.917 1109.2 237.245 1109.58 237.628C1109.99 237.983 1110.38 238.298 1110.73 238.571C1111.11 238.844 1111.51 238.981 1111.92 238.981C1112.55 238.981 1113.05 238.762 1113.44 238.325C1113.82 237.86 1114.02 237.232 1114.05 236.439H1115.81C1115.79 237.751 1115.43 238.817 1114.75 239.637C1114.07 240.457 1113.19 240.867 1112.12 240.867ZM1134.67 266.205C1132.59 266.205 1130.72 265.74 1129.05 264.811C1127.41 263.854 1126.11 262.556 1125.16 260.916C1124.2 259.249 1123.72 257.349 1123.72 255.217C1123.72 253.058 1124.2 251.158 1125.16 249.518C1126.11 247.878 1127.41 246.593 1129.05 245.664C1130.69 244.735 1132.56 244.27 1134.67 244.27C1136.8 244.27 1138.69 244.735 1140.33 245.664C1141.99 246.593 1143.29 247.878 1144.22 249.518C1145.18 251.158 1145.66 253.058 1145.66 255.217C1145.66 257.349 1145.18 259.249 1144.22 260.916C1143.29 262.556 1141.99 263.854 1140.33 264.811C1138.66 265.74 1136.77 266.205 1134.67 266.205ZM1134.67 263.622C1136.23 263.622 1137.61 263.28 1138.81 262.597C1140.01 261.886 1140.95 260.902 1141.64 259.645C1142.35 258.36 1142.7 256.884 1142.7 255.217C1142.7 253.522 1142.35 252.046 1141.64 250.789C1140.95 249.532 1140.01 248.561 1138.81 247.878C1137.61 247.167 1136.24 246.812 1134.71 246.812C1133.18 246.812 1131.81 247.167 1130.61 247.878C1129.41 248.561 1128.45 249.532 1127.74 250.789C1127.03 252.046 1126.67 253.522 1126.67 255.217C1126.67 256.884 1127.03 258.36 1127.74 259.645C1128.45 260.902 1129.41 261.886 1130.61 262.597C1131.81 263.28 1133.16 263.622 1134.67 263.622ZM1171.1 266L1158.39 237.3H1161.67L1173.56 264.319H1171.76L1183.73 237.3H1186.81L1174.1 266H1171.1ZM1190.24 266V244.475H1193.15V266H1190.24ZM1191.71 239.719C1191.11 239.719 1190.61 239.514 1190.2 239.104C1189.79 238.694 1189.58 238.202 1189.58 237.628C1189.58 237.054 1189.79 236.576 1190.2 236.193C1190.61 235.783 1191.11 235.578 1191.71 235.578C1192.31 235.578 1192.82 235.769 1193.23 236.152C1193.64 236.535 1193.84 237.013 1193.84 237.587C1193.84 238.188 1193.64 238.694 1193.23 239.104C1192.85 239.514 1192.34 239.719 1191.71 239.719ZM1207.03 266.205C1205.25 266.205 1203.57 265.959 1201.99 265.467C1200.4 264.948 1199.16 264.305 1198.25 263.54L1199.57 261.244C1200.44 261.9 1201.56 262.474 1202.93 262.966C1204.3 263.431 1205.73 263.663 1207.23 263.663C1209.28 263.663 1210.76 263.349 1211.66 262.72C1212.56 262.064 1213.01 261.203 1213.01 260.137C1213.01 259.344 1212.75 258.729 1212.24 258.292C1211.74 257.827 1211.09 257.486 1210.27 257.267C1209.45 257.021 1208.53 256.816 1207.52 256.652C1206.51 256.488 1205.5 256.297 1204.49 256.078C1203.5 255.859 1202.6 255.545 1201.78 255.135C1200.96 254.698 1200.29 254.11 1199.77 253.372C1199.28 252.634 1199.03 251.65 1199.03 250.42C1199.03 249.245 1199.36 248.192 1200.02 247.263C1200.67 246.334 1201.63 245.609 1202.89 245.09C1204.17 244.543 1205.73 244.27 1207.56 244.27C1208.96 244.27 1210.35 244.461 1211.74 244.844C1213.14 245.199 1214.29 245.678 1215.19 246.279L1213.92 248.616C1212.96 247.96 1211.93 247.495 1210.84 247.222C1209.75 246.921 1208.65 246.771 1207.56 246.771C1205.62 246.771 1204.19 247.113 1203.26 247.796C1202.35 248.452 1201.9 249.299 1201.9 250.338C1201.9 251.158 1202.15 251.8 1202.64 252.265C1203.16 252.73 1203.83 253.099 1204.65 253.372C1205.5 253.618 1206.41 253.823 1207.4 253.987C1208.41 254.151 1209.41 254.356 1210.39 254.602C1211.4 254.821 1212.32 255.135 1213.14 255.545C1213.98 255.928 1214.65 256.488 1215.15 257.226C1215.67 257.937 1215.93 258.88 1215.93 260.055C1215.93 261.312 1215.57 262.406 1214.86 263.335C1214.18 264.237 1213.16 264.948 1211.83 265.467C1210.51 265.959 1208.91 266.205 1207.03 266.205ZM1230.16 266.205C1228.33 266.205 1226.73 265.863 1225.37 265.18C1224 264.497 1222.93 263.472 1222.17 262.105C1221.43 260.738 1221.06 259.03 1221.06 256.98V244.475H1223.97V256.652C1223.97 258.948 1224.53 260.684 1225.65 261.859C1226.8 263.007 1228.4 263.581 1230.45 263.581C1231.95 263.581 1233.25 263.28 1234.35 262.679C1235.47 262.05 1236.31 261.148 1236.89 259.973C1237.49 258.798 1237.79 257.39 1237.79 255.75V244.475H1240.7V266H1237.91V260.096L1238.36 261.162C1237.68 262.747 1236.61 263.991 1235.17 264.893C1233.74 265.768 1232.08 266.205 1230.16 266.205ZM1262.3 266V261.244L1262.18 260.465V252.511C1262.18 250.68 1261.66 249.272 1260.62 248.288C1259.61 247.304 1258.09 246.812 1256.07 246.812C1254.68 246.812 1253.35 247.044 1252.09 247.509C1250.84 247.974 1249.77 248.589 1248.9 249.354L1247.58 247.181C1248.68 246.252 1249.99 245.541 1251.52 245.049C1253.05 244.53 1254.66 244.27 1256.36 244.27C1259.15 244.27 1261.29 244.967 1262.79 246.361C1264.33 247.728 1265.09 249.819 1265.09 252.634V266H1262.3ZM1254.88 266.205C1253.27 266.205 1251.86 265.945 1250.66 265.426C1249.48 264.879 1248.58 264.141 1247.95 263.212C1247.32 262.255 1247.01 261.162 1247.01 259.932C1247.01 258.811 1247.27 257.8 1247.79 256.898C1248.34 255.969 1249.21 255.231 1250.41 254.684C1251.64 254.11 1253.28 253.823 1255.33 253.823H1262.75V255.996H1255.41C1253.34 255.996 1251.89 256.365 1251.07 257.103C1250.28 257.841 1249.88 258.757 1249.88 259.85C1249.88 261.08 1250.36 262.064 1251.31 262.802C1252.27 263.54 1253.61 263.909 1255.33 263.909C1256.97 263.909 1258.38 263.54 1259.56 262.802C1260.76 262.037 1261.63 260.943 1262.18 259.522L1262.84 261.531C1262.29 262.952 1261.33 264.087 1259.97 264.934C1258.63 265.781 1256.93 266.205 1254.88 266.205ZM1273 266V235.578H1275.91V266H1273Z" fill="#1E293B"/>
</g>
<defs>
<clipPath id="clip0_205_265">
<rect width="1296" height="310" fill="white"/>
</clipPath>
</defs>
</svg>
