<svg shape-rendering="geometricPrecision" text-rendering="geometricPrecision" width="356" height="310" viewBox="0 0 356 310" fill="none" xmlns="http://www.w3.org/2000/svg">
<g clip-path="url(#clip0_206_349)">
<path d="M296.7 61.6C277.123 35.6719 249.893 16.5509 218.858 6.93889C187.824 -2.67314 154.553 -2.29026 123.748 8.03343C92.9431 18.3571 66.1607 38.0997 47.1853 64.4715C28.2099 90.8433 18.001 122.511 18.001 155C18.001 187.489 28.2099 219.157 47.1853 245.529C66.1607 271.9 92.9431 291.643 123.748 301.967C154.553 312.29 187.824 312.673 218.858 303.061C249.893 293.449 277.123 274.328 296.7 248.4L245 199.5C235.336 214.972 220.899 226.877 203.869 233.417C186.84 239.956 168.145 240.775 150.61 235.748C133.074 230.722 117.651 220.124 106.673 205.556C95.6938 190.988 89.7557 173.242 89.7557 155C89.7557 136.758 95.6938 119.012 106.673 104.444C117.651 89.8765 133.074 79.2783 150.61 74.2519C168.145 69.2254 186.84 70.0438 203.869 76.5834C220.899 83.123 235.336 95.0284 245 110.5L296.7 61.6Z" fill="#111B31"/>
<path d="M87 233L0 305L38 193L87 233Z" fill="#111B31"/>
<path d="M250 145L344 92C360 131 360 179 344 218L250 165V145Z" fill="#1764F5"/>
</g>
<defs>
<clipPath id="clip0_206_349">
<rect width="356" height="310" fill="white"/>
</clipPath>
</defs>
</svg>
