<svg shape-rendering="geometricPrecision" text-rendering="geometricPrecision" width="1296" height="310" viewBox="0 0 1296 310" fill="none" xmlns="http://www.w3.org/2000/svg">
<g clip-path="url(#clip0_206_359)">
<path d="M296.7 61.6C277.123 35.6719 249.893 16.5509 218.858 6.93889C187.824 -2.67314 154.553 -2.29026 123.748 8.03343C92.9431 18.3571 66.1607 38.0997 47.1853 64.4715C28.2099 90.8433 18.001 122.511 18.001 155C18.001 187.489 28.2099 219.157 47.1853 245.529C66.1607 271.9 92.9431 291.643 123.748 301.967C154.553 312.29 187.824 312.673 218.858 303.061C249.893 293.449 277.123 274.328 296.7 248.4L245 199.5C235.336 214.972 220.899 226.877 203.869 233.417C186.84 239.956 168.145 240.775 150.61 235.748C133.074 230.722 117.651 220.124 106.673 205.556C95.6938 190.988 89.7557 173.242 89.7557 155C89.7557 136.758 95.6938 119.012 106.673 104.444C117.651 89.8765 133.074 79.2783 150.61 74.2519C168.145 69.2254 186.84 70.0438 203.869 76.5834C220.899 83.123 235.336 95.0284 245 110.5L296.7 61.6Z" fill="#111B31"/>
<path d="M87 233L0 305L38 193L87 233Z" fill="#111B31"/>
<path d="M250 145L344 92C360 131 360 179 344 218L250 165V145Z" fill="#1764F5"/>
<path d="M485.504 202.536C478.592 202.536 472.149 201.427 466.176 199.208C460.288 196.904 455.168 193.661 450.816 189.48C446.464 185.299 443.051 180.392 440.576 174.76C438.187 169.128 436.992 162.941 436.992 156.2C436.992 149.459 438.187 143.272 440.576 137.64C443.051 132.008 446.464 127.101 450.816 122.92C455.253 118.739 460.416 115.539 466.304 113.32C472.192 111.016 478.635 109.864 485.632 109.864C493.397 109.864 500.395 111.229 506.624 113.96C512.939 116.605 518.229 120.531 522.496 125.736L509.184 138.024C506.112 134.525 502.699 131.923 498.944 130.216C495.189 128.424 491.093 127.528 486.656 127.528C482.475 127.528 478.635 128.211 475.136 129.576C471.637 130.941 468.608 132.904 466.048 135.464C463.488 138.024 461.483 141.053 460.032 144.552C458.667 148.051 457.984 151.933 457.984 156.2C457.984 160.467 458.667 164.349 460.032 167.848C461.483 171.347 463.488 174.376 466.048 176.936C468.608 179.496 471.637 181.459 475.136 182.824C478.635 184.189 482.475 184.872 486.656 184.872C491.093 184.872 495.189 184.019 498.944 182.312C502.699 180.52 506.112 177.832 509.184 174.248L522.496 186.536C518.229 191.741 512.939 195.709 506.624 198.44C500.395 201.171 493.355 202.536 485.504 202.536ZM564.234 202.024C556.895 202.024 550.367 200.488 544.65 197.416C539.018 194.344 534.538 190.163 531.21 184.872C527.967 179.496 526.346 173.395 526.346 166.568C526.346 159.656 527.967 153.555 531.21 148.264C534.538 142.888 539.018 138.707 544.65 135.72C550.367 132.648 556.895 131.112 564.234 131.112C571.487 131.112 577.973 132.648 583.69 135.72C589.407 138.707 593.887 142.845 597.13 148.136C600.373 153.427 601.994 159.571 601.994 166.568C601.994 173.395 600.373 179.496 597.13 184.872C593.887 190.163 589.407 194.344 583.69 197.416C577.973 200.488 571.487 202.024 564.234 202.024ZM564.234 185.64C567.562 185.64 570.549 184.872 573.194 183.336C575.839 181.8 577.93 179.624 579.466 176.808C581.002 173.907 581.77 170.493 581.77 166.568C581.77 162.557 581.002 159.144 579.466 156.328C577.93 153.512 575.839 151.336 573.194 149.8C570.549 148.264 567.562 147.496 564.234 147.496C560.906 147.496 557.919 148.264 555.274 149.8C552.629 151.336 550.495 153.512 548.874 156.328C547.338 159.144 546.57 162.557 546.57 166.568C546.57 170.493 547.338 173.907 548.874 176.808C550.495 179.624 552.629 181.8 555.274 183.336C557.919 184.872 560.906 185.64 564.234 185.64ZM615.341 201V132.136H634.413V150.952L630.829 145.448C633.218 140.755 636.589 137.213 640.941 134.824C645.378 132.349 650.413 131.112 656.045 131.112C662.36 131.112 667.864 132.733 672.557 135.976C677.336 139.133 680.493 143.997 682.029 150.568L674.989 148.648C677.293 143.272 680.962 139.005 685.997 135.848C691.117 132.691 696.962 131.112 703.533 131.112C708.994 131.112 713.816 132.221 717.997 134.44C722.264 136.573 725.592 139.901 727.981 144.424C730.456 148.861 731.693 154.579 731.693 161.576V201H711.725V164.648C711.725 159.101 710.573 155.005 708.269 152.36C705.965 149.715 702.722 148.392 698.541 148.392C695.64 148.392 693.037 149.075 690.733 150.44C688.429 151.72 686.637 153.683 685.357 156.328C684.077 158.973 683.437 162.344 683.437 166.44V201H663.469V164.648C663.469 159.101 662.317 155.005 660.013 152.36C657.794 149.715 654.594 148.392 650.413 148.392C647.512 148.392 644.909 149.075 642.605 150.44C640.301 151.72 638.509 153.683 637.229 156.328C635.949 158.973 635.309 162.344 635.309 166.44V201H615.341ZM778.647 202.024C772.93 202.024 767.81 200.915 763.287 198.696C758.85 196.477 755.394 193.107 752.919 188.584C750.444 183.976 749.207 178.131 749.207 171.048V132.136H769.175V168.104C769.175 173.821 770.37 178.045 772.759 180.776C775.234 183.421 778.69 184.744 783.127 184.744C786.199 184.744 788.93 184.104 791.319 182.824C793.708 181.459 795.586 179.411 796.951 176.68C798.316 173.864 798.999 170.365 798.999 166.184V132.136H818.967V201H800.023V182.056L803.479 187.56C801.175 192.339 797.762 195.965 793.239 198.44C788.802 200.829 783.938 202.024 778.647 202.024ZM837.466 201V132.136H856.538V151.208L852.954 145.448C855.429 140.84 858.97 137.299 863.578 134.824C868.186 132.349 873.434 131.112 879.322 131.112C884.783 131.112 889.647 132.221 893.914 134.44C898.266 136.573 901.679 139.901 904.154 144.424C906.629 148.861 907.866 154.579 907.866 161.576V201H887.898V164.648C887.898 159.101 886.661 155.005 884.186 152.36C881.797 149.715 878.383 148.392 873.946 148.392C870.789 148.392 867.93 149.075 865.37 150.44C862.895 151.72 860.933 153.725 859.482 156.456C858.117 159.187 857.434 162.685 857.434 166.952V201H837.466ZM925.966 201V132.136H945.934V201H925.966ZM935.95 122.536C932.281 122.536 929.294 121.469 926.99 119.336C924.686 117.203 923.534 114.557 923.534 111.4C923.534 108.243 924.686 105.597 926.99 103.464C929.294 101.331 932.281 100.264 935.95 100.264C939.619 100.264 942.606 101.288 944.91 103.336C947.214 105.299 948.366 107.859 948.366 111.016C948.366 114.344 947.214 117.117 944.91 119.336C942.691 121.469 939.705 122.536 935.95 122.536ZM980.978 186.92L981.49 162.6L1013.62 132.136H1037.43L1006.58 163.496L996.21 171.944L980.978 186.92ZM964.466 201V106.024H984.434V201H964.466ZM1015.79 201L992.498 172.072L1005.04 156.584L1039.99 201H1015.79Z" fill="#111B31"/>
<path d="M1091.46 201V187.56L1090.18 184.616V160.552C1090.18 156.285 1088.85 152.957 1086.21 150.568C1083.65 148.179 1079.68 146.984 1074.3 146.984C1070.63 146.984 1067.01 147.581 1063.42 148.776C1059.93 149.885 1056.94 151.421 1054.46 153.384L1047.3 139.432C1051.05 136.787 1055.57 134.739 1060.86 133.288C1066.15 131.837 1071.53 131.112 1076.99 131.112C1087.49 131.112 1095.64 133.587 1101.44 138.536C1107.24 143.485 1110.14 151.208 1110.14 161.704V201H1091.46ZM1070.46 202.024C1065.09 202.024 1060.48 201.128 1056.64 199.336C1052.8 197.459 1049.86 194.941 1047.81 191.784C1045.76 188.627 1044.74 185.085 1044.74 181.16C1044.74 177.064 1045.72 173.48 1047.68 170.408C1049.73 167.336 1052.93 164.947 1057.28 163.24C1061.63 161.448 1067.31 160.552 1074.3 160.552H1092.61V172.2H1076.48C1071.79 172.2 1068.54 172.968 1066.75 174.504C1065.05 176.04 1064.19 177.96 1064.19 180.264C1064.19 182.824 1065.17 184.872 1067.14 186.408C1069.18 187.859 1071.96 188.584 1075.46 188.584C1078.78 188.584 1081.77 187.816 1084.42 186.28C1087.06 184.659 1088.98 182.312 1090.18 179.24L1093.25 188.456C1091.8 192.893 1089.15 196.264 1085.31 198.568C1081.47 200.872 1076.52 202.024 1070.46 202.024ZM1168.92 202.024C1163.12 202.024 1158.04 200.744 1153.69 198.184C1149.34 195.624 1145.92 191.741 1143.45 186.536C1141.06 181.245 1139.86 174.589 1139.86 166.568C1139.86 158.461 1141.02 151.805 1143.32 146.6C1145.62 141.395 1148.95 137.512 1153.3 134.952C1157.66 132.392 1162.86 131.112 1168.92 131.112C1175.41 131.112 1181.21 132.605 1186.33 135.592C1191.53 138.493 1195.63 142.589 1198.62 147.88C1201.69 153.171 1203.22 159.4 1203.22 166.568C1203.22 173.821 1201.69 180.093 1198.62 185.384C1195.63 190.675 1191.53 194.771 1186.33 197.672C1181.21 200.573 1175.41 202.024 1168.92 202.024ZM1128.22 225.832V132.136H1147.29V146.216L1146.9 166.696L1148.18 187.048V225.832H1128.22ZM1165.46 185.64C1168.79 185.64 1171.74 184.872 1174.3 183.336C1176.94 181.8 1179.03 179.624 1180.57 176.808C1182.19 173.907 1183 170.493 1183 166.568C1183 162.557 1182.19 159.144 1180.57 156.328C1179.03 153.512 1176.94 151.336 1174.3 149.8C1171.74 148.264 1168.79 147.496 1165.46 147.496C1162.14 147.496 1159.15 148.264 1156.5 149.8C1153.86 151.336 1151.77 153.512 1150.23 156.328C1148.7 159.144 1147.93 162.557 1147.93 166.568C1147.93 170.493 1148.7 173.907 1150.23 176.808C1151.77 179.624 1153.86 181.8 1156.5 183.336C1159.15 184.872 1162.14 185.64 1165.46 185.64ZM1257.3 202.024C1251.49 202.024 1246.42 200.744 1242.06 198.184C1237.71 195.624 1234.3 191.741 1231.82 186.536C1229.43 181.245 1228.24 174.589 1228.24 166.568C1228.24 158.461 1229.39 151.805 1231.7 146.6C1234 141.395 1237.33 137.512 1241.68 134.952C1246.03 132.392 1251.24 131.112 1257.3 131.112C1263.78 131.112 1269.58 132.605 1274.7 135.592C1279.91 138.493 1284 142.589 1286.99 147.88C1290.06 153.171 1291.6 159.4 1291.6 166.568C1291.6 173.821 1290.06 180.093 1286.99 185.384C1284 190.675 1279.91 194.771 1274.7 197.672C1269.58 200.573 1263.78 202.024 1257.3 202.024ZM1216.59 225.832V132.136H1235.66V146.216L1235.28 166.696L1236.56 187.048V225.832H1216.59ZM1253.84 185.64C1257.17 185.64 1260.11 184.872 1262.67 183.336C1265.32 181.8 1267.41 179.624 1268.94 176.808C1270.56 173.907 1271.38 170.493 1271.38 166.568C1271.38 162.557 1270.56 159.144 1268.94 156.328C1267.41 153.512 1265.32 151.336 1262.67 149.8C1260.11 148.264 1257.17 147.496 1253.84 147.496C1250.51 147.496 1247.52 148.264 1244.88 149.8C1242.23 151.336 1240.14 153.512 1238.61 156.328C1237.07 159.144 1236.3 162.557 1236.3 166.568C1236.3 170.493 1237.07 173.907 1238.61 176.808C1240.14 179.624 1242.23 181.8 1244.88 183.336C1247.52 184.872 1250.51 185.64 1253.84 185.64Z" fill="#1764F5"/>
</g>
<defs>
<clipPath id="clip0_206_359">
<rect width="1296" height="310" fill="white"/>
</clipPath>
</defs>
</svg>
