<svg width="1000" height="1000" viewBox="0 0 1000 1000" fill="none" xmlns="http://www.w3.org/2000/svg">
<path d="M803.259 261.378C753.243 195.136 683.675 146.285 604.387 121.728C525.099 97.1706 440.098 98.1488 361.396 124.524C282.694 150.9 214.269 201.338 165.79 268.714C117.311 336.09 91.2285 416.996 91.2285 500C91.2285 583.004 117.311 663.91 165.79 731.286C214.269 798.662 282.694 849.101 361.396 875.476C440.098 901.851 525.099 902.829 604.387 878.272C683.675 853.715 753.243 804.864 803.259 738.622L671.174 613.69C646.485 653.218 609.599 683.634 566.093 700.342C522.586 717.049 474.823 719.14 430.022 706.298C385.222 693.457 345.819 666.38 317.77 629.161C289.721 591.943 274.55 546.605 274.55 500C274.55 453.395 289.721 408.057 317.77 370.839C345.819 333.62 385.222 306.543 430.022 293.702C474.823 280.86 522.586 282.951 566.093 299.658C609.599 316.366 646.485 346.782 671.174 386.31L803.259 261.378Z" fill="white"/>
<path d="M267.51 699.278L45.2388 883.226L142.323 597.084L267.51 699.278Z" fill="white"/>
<path d="M683.948 474.452L924.103 339.045C964.98 438.684 964.98 561.316 924.103 660.955L683.948 525.548V474.452Z" fill="#1764F5"/>
</svg>
