<svg width="150" height="36" viewBox="0 0 150 36" fill="none" xmlns="http://www.w3.org/2000/svg">
<g clip-path="url(#clip0_211_475)">
<path d="M34.4554 7.15355C32.1819 4.14254 29.0197 1.92204 25.4157 0.805806C21.8117 -0.310429 17.948 -0.265966 14.3707 0.932915C10.7933 2.1318 7.68307 4.42448 5.47948 7.48701C3.27589 10.5495 2.09033 14.2271 2.09033 18C2.09033 21.7729 3.27589 25.4505 5.47948 28.513C7.68307 31.5755 10.7933 33.8682 14.3707 35.0671C17.948 36.266 21.8117 36.3104 25.4157 35.1942C29.0197 34.078 32.1819 31.8575 34.4554 28.8464L28.4515 23.1677C27.3293 24.9644 25.6526 26.347 23.6751 27.1064C21.6975 27.8659 19.5264 27.9609 17.49 27.3772C15.4537 26.7935 13.6626 25.5627 12.3877 23.871C11.1127 22.1792 10.4231 20.1184 10.4231 18C10.4231 15.8816 11.1127 13.8208 12.3877 12.129C13.6626 10.4373 15.4537 9.20652 17.49 8.6228C19.5264 8.03908 21.6975 8.13412 23.6751 8.89356C25.6526 9.653 27.3293 11.0356 28.4515 12.8323L34.4554 7.15355Z" fill="white"/>
<path d="M10.1032 27.0582L0 35.4195L4.4129 22.4131L10.1032 27.0582Z" fill="white"/>
<path d="M29.0322 16.8389L39.9484 10.6841C41.8064 15.2131 41.8064 20.7873 39.9484 25.3163L29.0322 19.1615V16.8389Z" fill="#1764F5"/>
<path d="M113.92 21.7069L113.979 18.8826L117.71 15.3449H120.475L116.893 18.9867L115.689 19.9677L113.92 21.7069ZM112.002 23.342V12.3125H114.321V23.342H112.002ZM117.963 23.342L115.258 19.9826L116.714 18.184L120.773 23.342H117.963Z" fill="white"/>
<path d="M107.531 23.3419V15.3448H109.85V23.3419H107.531ZM108.691 14.23C108.265 14.23 107.918 14.1061 107.65 13.8584C107.383 13.6106 107.249 13.3034 107.249 12.9368C107.249 12.5701 107.383 12.2629 107.65 12.0152C107.918 11.7674 108.265 11.6436 108.691 11.6436C109.117 11.6436 109.464 11.7625 109.731 12.0003C109.999 12.2282 110.133 12.5255 110.133 12.8922C110.133 13.2787 109.999 13.6007 109.731 13.8584C109.474 14.1061 109.127 14.23 108.691 14.23Z" fill="white"/>
<path d="M97.2539 23.3421V15.345H99.4687V17.5598L99.0525 16.8909C99.3399 16.3558 99.7511 15.9445 100.286 15.6571C100.821 15.3698 101.431 15.2261 102.115 15.2261C102.749 15.2261 103.314 15.3549 103.809 15.6126C104.315 15.8603 104.711 16.2468 104.998 16.772C105.286 17.2873 105.429 17.9512 105.429 18.7638V23.3421H103.111V19.1206C103.111 18.4764 102.967 18.0008 102.679 17.6936C102.402 17.3864 102.006 17.2328 101.49 17.2328C101.124 17.2328 100.792 17.3121 100.494 17.4706C100.207 17.6193 99.9791 17.8521 99.8106 18.1692C99.652 18.4864 99.5728 18.8927 99.5728 19.3881V23.3421H97.2539Z" fill="white"/>
<path d="M90.4237 23.4608C89.7598 23.4608 89.1652 23.3319 88.64 23.0743C88.1247 22.8166 87.7233 22.4252 87.436 21.9C87.1486 21.3649 87.0049 20.686 87.0049 19.8635V15.3447H89.3237V19.5217C89.3237 20.1856 89.4625 20.6761 89.74 20.9932C90.0273 21.3004 90.4287 21.454 90.944 21.454C91.3007 21.454 91.6178 21.3797 91.8953 21.2311C92.1728 21.0725 92.3908 20.8347 92.5493 20.5176C92.7079 20.1906 92.7872 19.7843 92.7872 19.2987V15.3447H95.106V23.3418H92.9061V21.1419L93.3074 21.7811C93.0399 22.336 92.6435 22.7572 92.1183 23.0445C91.603 23.322 91.0381 23.4608 90.4237 23.4608Z" fill="white"/>
<path d="M71.459 23.3421V15.345H73.6738V17.5301L73.2576 16.8909C73.5351 16.3459 73.9265 15.9346 74.4319 15.6571C74.9472 15.3698 75.5319 15.2261 76.1859 15.2261C76.9192 15.2261 77.5584 15.4144 78.1034 15.7909C78.6584 16.1576 79.025 16.7224 79.2034 17.4855L78.3859 17.2625C78.6534 16.6382 79.0795 16.1427 79.6642 15.7761C80.2588 15.4094 80.9376 15.2261 81.7006 15.2261C82.3349 15.2261 82.8948 15.3549 83.3803 15.6126C83.8758 15.8603 84.2623 16.2468 84.5398 16.772C84.8271 17.2873 84.9708 17.9512 84.9708 18.7638V23.3421H82.652V19.1206C82.652 18.4764 82.5182 18.0008 82.2506 17.6936C81.9831 17.3864 81.6065 17.2328 81.1209 17.2328C80.784 17.2328 80.4817 17.3121 80.2142 17.4706C79.9466 17.6193 79.7385 17.8472 79.5899 18.1544C79.4412 18.4616 79.3669 18.853 79.3669 19.3287V23.3421H77.048V19.1206C77.048 18.4764 76.9143 18.0008 76.6467 17.6936C76.389 17.3864 76.0174 17.2328 75.5319 17.2328C75.1949 17.2328 74.8927 17.3121 74.6251 17.4706C74.3576 17.6193 74.1495 17.8472 74.0008 18.1544C73.8522 18.4616 73.7778 18.853 73.7778 19.3287V23.3421H71.459Z" fill="white"/>
<path d="M65.5239 23.461C64.6717 23.461 63.9136 23.2826 63.2496 22.9259C62.5956 22.5691 62.0754 22.0836 61.6889 21.4692C61.3123 20.8449 61.124 20.1363 61.124 19.3435C61.124 18.5409 61.3123 17.8323 61.6889 17.2179C62.0754 16.5936 62.5956 16.108 63.2496 15.7612C63.9136 15.4044 64.6717 15.2261 65.5239 15.2261C66.3662 15.2261 67.1194 15.4044 67.7833 15.7612C68.4473 16.108 68.9675 16.5887 69.3441 17.2031C69.7207 17.8175 69.909 18.531 69.909 19.3435C69.909 20.1363 69.7207 20.8449 69.3441 21.4692C68.9675 22.0836 68.4473 22.5691 67.7833 22.9259C67.1194 23.2826 66.3662 23.461 65.5239 23.461ZM65.5239 21.5584C65.9104 21.5584 66.2572 21.4692 66.5644 21.2908C66.8716 21.1124 67.1144 20.8597 67.2928 20.5327C67.4712 20.1958 67.5604 19.7994 67.5604 19.3435C67.5604 18.8778 67.4712 18.4814 67.2928 18.1544C67.1144 17.8274 66.8716 17.5747 66.5644 17.3963C66.2572 17.2179 65.9104 17.1287 65.5239 17.1287C65.1374 17.1287 64.7906 17.2179 64.4834 17.3963C64.1762 17.5747 63.9285 17.8274 63.7402 18.1544C63.5618 18.4814 63.4726 18.8778 63.4726 19.3435C63.4726 19.7994 63.5618 20.1958 63.7402 20.5327C63.9285 20.8597 64.1762 21.1124 64.4834 21.2908C64.7906 21.4692 65.1374 21.5584 65.5239 21.5584Z" fill="white"/>
<path d="M56.3812 23.5202C55.5785 23.5202 54.8303 23.3914 54.1367 23.1337C53.4529 22.8662 52.8583 22.4896 52.3529 22.004C51.8475 21.5185 51.4511 20.9486 51.1638 20.2946C50.8863 19.6406 50.7476 18.9221 50.7476 18.1393C50.7476 17.3564 50.8863 16.6379 51.1638 15.9839C51.4511 15.3299 51.8475 14.7601 52.3529 14.2745C52.8682 13.7889 53.4678 13.4173 54.1515 13.1596C54.8353 12.8921 55.5835 12.7583 56.3961 12.7583C57.2979 12.7583 58.1104 12.9169 58.8339 13.234C59.5672 13.5412 60.1816 13.997 60.6771 14.6015L59.1311 16.0285C58.7744 15.6222 58.378 15.32 57.942 15.1218C57.506 14.9137 57.0303 14.8096 56.515 14.8096C56.0294 14.8096 55.5835 14.8889 55.1772 15.0474C54.7709 15.206 54.4191 15.4339 54.1218 15.7312C53.8245 16.0285 53.5916 16.3803 53.4232 16.7866C53.2646 17.1929 53.1853 17.6438 53.1853 18.1393C53.1853 18.6347 53.2646 19.0856 53.4232 19.4919C53.5916 19.8982 53.8245 20.25 54.1218 20.5473C54.4191 20.8446 54.7709 21.0725 55.1772 21.2311C55.5835 21.3896 56.0294 21.4689 56.515 21.4689C57.0303 21.4689 57.506 21.3698 57.942 21.1716C58.378 20.9635 58.7744 20.6514 59.1311 20.2352L60.6771 21.6621C60.1816 22.2666 59.5672 22.7274 58.8339 23.0445C58.1104 23.3617 57.2929 23.5202 56.3812 23.5202Z" fill="white"/>
<path d="M146.009 23.461C145.335 23.461 144.745 23.3124 144.24 23.0151C143.734 22.7178 143.338 22.2669 143.051 21.6624C142.773 21.048 142.634 20.2751 142.634 19.3435C142.634 18.4021 142.768 17.6292 143.036 17.0247C143.303 16.4202 143.69 15.9693 144.195 15.672C144.701 15.3747 145.305 15.2261 146.009 15.2261C146.762 15.2261 147.436 15.3995 148.03 15.7463C148.635 16.0833 149.11 16.5589 149.457 17.1733C149.814 17.7877 149.992 18.5111 149.992 19.3435C149.992 20.1859 149.814 20.9142 149.457 21.5286C149.11 22.143 148.635 22.6187 148.03 22.9556C147.436 23.2926 146.762 23.461 146.009 23.461ZM141.282 26.2258V15.345H143.497V16.9801L143.452 19.3584L143.601 21.7219V26.2258H141.282ZM145.607 21.5584C145.994 21.5584 146.336 21.4692 146.633 21.2908C146.94 21.1124 147.183 20.8597 147.361 20.5327C147.55 20.1958 147.644 19.7994 147.644 19.3435C147.644 18.8778 147.55 18.4814 147.361 18.1544C147.183 17.8274 146.94 17.5747 146.633 17.3963C146.336 17.2179 145.994 17.1287 145.607 17.1287C145.221 17.1287 144.874 17.2179 144.567 17.3963C144.26 17.5747 144.017 17.8274 143.838 18.1544C143.66 18.4814 143.571 18.8778 143.571 19.3435C143.571 19.7994 143.66 20.1958 143.838 20.5327C144.017 20.8597 144.26 21.1124 144.567 21.2908C144.874 21.4692 145.221 21.5584 145.607 21.5584Z" fill="#1764F5"/>
<path d="M135.745 23.461C135.072 23.461 134.482 23.3124 133.977 23.0151C133.471 22.7178 133.075 22.2669 132.787 21.6624C132.51 21.048 132.371 20.2751 132.371 19.3435C132.371 18.4021 132.505 17.6292 132.773 17.0247C133.04 16.4202 133.427 15.9693 133.932 15.672C134.437 15.3747 135.042 15.2261 135.745 15.2261C136.499 15.2261 137.172 15.3995 137.767 15.7463C138.372 16.0833 138.847 16.5589 139.194 17.1733C139.551 17.7877 139.729 18.5111 139.729 19.3435C139.729 20.1859 139.551 20.9142 139.194 21.5286C138.847 22.143 138.372 22.6187 137.767 22.9556C137.172 23.2926 136.499 23.461 135.745 23.461ZM131.019 26.2258V15.345H133.233V16.9801L133.189 19.3584L133.337 21.7219V26.2258H131.019ZM135.344 21.5584C135.731 21.5584 136.072 21.4692 136.37 21.2908C136.677 21.1124 136.92 20.8597 137.098 20.5327C137.286 20.1958 137.381 19.7994 137.381 19.3435C137.381 18.8778 137.286 18.4814 137.098 18.1544C136.92 17.8274 136.677 17.5747 136.37 17.3963C136.072 17.2179 135.731 17.1287 135.344 17.1287C134.958 17.1287 134.611 17.2179 134.304 17.3963C133.996 17.5747 133.754 17.8274 133.575 18.1544C133.397 18.4814 133.308 18.8778 133.308 19.3435C133.308 19.7994 133.397 20.1958 133.575 20.5327C133.754 20.8597 133.996 21.1124 134.304 21.2908C134.611 21.4692 134.958 21.5584 135.344 21.5584Z" fill="#1764F5"/>
<path d="M126.75 23.3421V21.7813L126.601 21.4394V18.6449C126.601 18.1494 126.448 17.763 126.14 17.4855C125.843 17.208 125.382 17.0693 124.758 17.0693C124.332 17.0693 123.911 17.1386 123.494 17.2774C123.088 17.4062 122.741 17.5846 122.454 17.8125L121.622 16.1923C122.058 15.8851 122.583 15.6472 123.197 15.4788C123.812 15.3103 124.436 15.2261 125.07 15.2261C126.289 15.2261 127.235 15.5135 127.909 16.0882C128.583 16.663 128.92 17.5598 128.92 18.7787V23.3421H126.75ZM124.312 23.461C123.688 23.461 123.153 23.357 122.707 23.1489C122.261 22.9308 121.919 22.6385 121.681 22.2719C121.443 21.9052 121.324 21.4939 121.324 21.0381C121.324 20.5624 121.438 20.1462 121.666 19.7895C121.904 19.4327 122.276 19.1553 122.781 18.9571C123.286 18.749 123.945 18.6449 124.758 18.6449H126.884V19.9976H125.011C124.466 19.9976 124.089 20.0868 123.881 20.2651C123.683 20.4435 123.584 20.6665 123.584 20.934C123.584 21.2313 123.698 21.4692 123.926 21.6475C124.163 21.816 124.485 21.9002 124.892 21.9002C125.278 21.9002 125.625 21.8111 125.932 21.6327C126.239 21.4444 126.462 21.1719 126.601 20.8151L126.958 21.8854C126.789 22.4007 126.482 22.7921 126.036 23.0597C125.59 23.3272 125.016 23.461 124.312 23.461Z" fill="#1764F5"/>
</g>
<defs>
<clipPath id="clip0_211_475">
<rect width="150" height="36" fill="white"/>
</clipPath>
</defs>
</svg>
