<?xml version="1.0" encoding="utf-8" ?>
<svg baseProfile="full" height="800px" version="1.1" width="1200px" xmlns="http://www.w3.org/2000/svg" xmlns:ev="http://www.w3.org/2001/xml-events" xmlns:xlink="http://www.w3.org/1999/xlink"><defs /><rect fill="#F9FAFB" height="100%" width="100%" x="0" y="0" /><rect fill="white" height="80px" rx="8" ry="8" stroke="#E5E7EB" width="1160px" x="20" y="20" /><text fill="#111827" font-size="28px" font-weight="bold" x="40" y="70">OS #2025-001</text><text fill="#2563EB" font-size="18px" x="300" y="70">Status: Aguardando Aprovação Técnica</text><rect fill="white" height="80px" rx="8" ry="8" stroke="#E5E7EB" width="1160px" x="20" y="120" /><text fill="#111827" font-size="18px" x="40" y="160">Cliente: Empresa XYZ</text><text fill="#111827" font-size="18px" x="400" y="160">Prazo: 15/10/2025</text><text fill="#2563EB" font-size="18px" x="700" y="160">Prioridade: Alta</text><rect fill="white" height="540px" rx="8" ry="8" stroke="#E5E7EB" width="760px" x="20" y="220" /><rect fill="white" height="540px" rx="8" ry="8" stroke="#E5E7EB" width="380px" x="800" y="220" /><rect fill="#EFF6FF" height="40px" rx="6" ry="6" stroke="#E5E7EB" width="120px" x="40" y="240" /><text fill="#1E3A8A" font-size="16px" font-weight="bold" x="50" y="265">Resumo</text><rect fill="white" height="40px" rx="6" ry="6" stroke="#E5E7EB" width="120px" x="180" y="240" /><text fill="#111827" font-size="16px" font-weight="normal" x="190" y="265">Técnico</text><rect fill="white" height="40px" rx="6" ry="6" stroke="#E5E7EB" width="120px" x="320" y="240" /><text fill="#111827" font-size="16px" font-weight="normal" x="330" y="265">Materiais</text><rect fill="white" height="40px" rx="6" ry="6" stroke="#E5E7EB" width="120px" x="460" y="240" /><text fill="#111827" font-size="16px" font-weight="normal" x="470" y="265">Aprovação</text><rect fill="white" height="40px" rx="6" ry="6" stroke="#E5E7EB" width="120px" x="600" y="240" /><text fill="#111827" font-size="16px" font-weight="normal" x="610" y="265">Instalação</text><rect fill="#F9FAFB" height="100px" rx="6" ry="6" stroke="#E5E7EB" width="700px" x="40" y="300" /><text fill="#111827" font-size="18px" x="60" y="340">Projeto: Fachada em ACM 5x2,5m</text><text fill="#6B7280" font-size="16px" x="60" y="370">Descrição: Placa em ACM com adesivo e corte CNC</text><rect fill="#F9FAFB" height="100px" rx="6" ry="6" stroke="#E5E7EB" width="700px" x="40" y="420" /><text fill="#111827" font-size="18px" x="60" y="460">Materiais Principais:</text><text fill="#6B7280" font-size="16px" x="60" y="490">• ACM 3mm Branco - 12.5 m²</text><text fill="#6B7280" font-size="16px" x="60" y="510">• Adesivo Cast - 13 m²</text><text fill="#1E3A8A" font-size="20px" font-weight="bold" x="820" y="260">Resumo OS</text><text fill="#111827" font-size="16px" x="820" y="300">Materiais: OK</text><text fill="#111827" font-size="16px" x="820" y="330">Aprovação Técnica: Pendente</text><text fill="#111827" font-size="16px" x="820" y="360">Instalação: Não agendada</text><text fill="#1E3A8A" font-size="20px" font-weight="bold" x="820" y="420">Contato Cliente</text><text fill="#111827" font-size="16px" x="820" y="450">João Silva - (11) 99999-9999</text><text fill="#111827" font-size="16px" x="820" y="470">Email: contato@empresa.com</text></svg>